<svg width="24" height="24" viewBox="0 0 24 24" fill="none" xmlns="http://www.w3.org/2000/svg">
<path d="M0 12C0 5.37225 5.37225 0 12 0C18.627 0 24 5.37225 24 12C24 18.627 18.627 24 12 24C5.37225 24 0 18.627 0 12Z" fill="url(#paint0_linear_253_804)"/>
<path d="M0 12C0 5.37225 5.37225 0 12 0C18.627 0 24 5.37225 24 12C24 18.627 18.627 24 12 24C5.37225 24 0 18.627 0 12Z" fill="url(#paint1_linear_253_804)"/>
<path d="M8.46908 16.8114C9.65545 16.7229 14.0822 16.2271 15.7998 13.8012L15.3925 13.8543C15.3925 13.8543 17.1986 12.1368 17.2872 11.0921L16.9861 11.1275C16.9861 11.1275 17.4819 10.1005 17.3757 8.61307L17.0393 8.64848C17.0393 8.64848 17.3049 6.68301 17.1455 5.88619L16.8799 6.01014C17.2163 5.23103 16.8091 4.08008 16.8091 4.08008C16.1008 4.41651 15.1977 5.17791 15.1977 5.17791L15.0738 4.8946C14.1707 5.16021 12.3646 6.29345 12.3646 6.29345L12.2407 6.02785C10.647 6.6653 9.83252 7.53294 9.83252 7.53294L9.72628 7.28505C8.68156 7.85167 7.79621 10.0119 7.79621 10.0119L7.65456 9.6932C5.9901 12.1191 7.60144 15.6073 8.09723 16.5458C7.74309 17.0062 7.14105 17.8915 6.92857 18.529C6.60984 19.432 6.7515 19.3081 6.7515 19.3081L6.89316 19.6799C6.85774 19.6977 7.38895 17.9624 8.46908 16.8114Z" fill="#2D4D2B"/>
<defs>
<linearGradient id="paint0_linear_253_804" x1="-2.49043e-07" y1="0.6" x2="22.68" y2="19.8" gradientUnits="userSpaceOnUse">
<stop offset="0.75" stop-color="#598556"/>
</linearGradient>
<linearGradient id="paint1_linear_253_804" x1="-2.49043e-07" y1="0.6" x2="22.68" y2="19.8" gradientUnits="userSpaceOnUse">
<stop offset="0.75" stop-color="#598556"/>
</linearGradient>
</defs>
</svg>
