<svg width="1455" height="1439" viewBox="0 0 1455 1439" fill="none" xmlns="http://www.w3.org/2000/svg">
<rect width="1455" height="1439" rx="20" fill="#272428"/>
<rect x="437" y="956" width="369" height="350" rx="20" fill="#ADADAD"/>
<path d="M547.392 1263H540.929L559.623 1212.09H565.986L584.679 1263H578.216L563.003 1220.14H562.606L547.392 1263ZM549.779 1243.11H575.83V1248.58H549.779V1243.11ZM603.049 1263.89C600.63 1263.89 598.434 1263.44 596.462 1262.53C594.49 1261.6 592.924 1260.27 591.764 1258.53C590.604 1256.77 590.024 1254.65 590.024 1252.16C590.024 1249.97 590.455 1248.2 591.316 1246.84C592.178 1245.47 593.33 1244.39 594.772 1243.61C596.214 1242.83 597.804 1242.25 599.544 1241.87C601.301 1241.47 603.066 1241.16 604.839 1240.93C607.159 1240.63 609.04 1240.4 610.482 1240.25C611.94 1240.09 613.001 1239.82 613.664 1239.43C614.343 1239.05 614.683 1238.39 614.683 1237.45V1237.25C614.683 1234.79 614.012 1232.89 612.669 1231.53C611.344 1230.17 609.33 1229.49 606.629 1229.49C603.828 1229.49 601.633 1230.1 600.042 1231.33C598.451 1232.56 597.332 1233.87 596.686 1235.26L591.118 1233.27C592.112 1230.95 593.438 1229.14 595.095 1227.85C596.769 1226.54 598.592 1225.63 600.564 1225.12C602.552 1224.59 604.508 1224.32 606.43 1224.32C607.656 1224.32 609.065 1224.47 610.656 1224.77C612.263 1225.05 613.813 1225.64 615.304 1226.53C616.812 1227.43 618.064 1228.78 619.058 1230.59C620.052 1232.39 620.549 1234.81 620.549 1237.84V1263H614.683V1257.83H614.385C613.987 1258.66 613.324 1259.54 612.396 1260.49C611.468 1261.43 610.233 1262.24 608.692 1262.9C607.151 1263.56 605.27 1263.89 603.049 1263.89ZM603.944 1258.62C606.264 1258.62 608.22 1258.17 609.811 1257.26C611.418 1256.35 612.628 1255.17 613.44 1253.73C614.269 1252.29 614.683 1250.77 614.683 1249.18V1243.81C614.434 1244.11 613.888 1244.38 613.042 1244.63C612.214 1244.86 611.253 1245.07 610.159 1245.25C609.082 1245.42 608.029 1245.57 607.002 1245.7C605.991 1245.81 605.171 1245.91 604.541 1246C603.016 1246.2 601.591 1246.52 600.265 1246.97C598.956 1247.4 597.896 1248.05 597.084 1248.93C596.288 1249.79 595.89 1250.97 595.89 1252.46C595.89 1254.5 596.644 1256.04 598.152 1257.08C599.677 1258.11 601.608 1258.62 603.944 1258.62ZM661.111 1224.82L646.992 1263H641.026L626.907 1224.82H633.271L643.81 1255.24H644.208L654.748 1224.82H661.111ZM683.496 1263.8C679.817 1263.8 676.643 1262.98 673.975 1261.36C671.324 1259.72 669.277 1257.43 667.835 1254.5C666.41 1251.55 665.698 1248.12 665.698 1244.21C665.698 1240.3 666.41 1236.85 667.835 1233.87C669.277 1230.87 671.282 1228.53 673.851 1226.86C676.436 1225.17 679.452 1224.32 682.899 1224.32C684.888 1224.32 686.852 1224.65 688.791 1225.32C690.73 1225.98 692.495 1227.06 694.085 1228.55C695.676 1230.02 696.944 1231.98 697.889 1234.41C698.833 1236.85 699.306 1239.85 699.306 1243.41V1245.9H669.874V1240.83H693.34C693.34 1238.67 692.909 1236.75 692.047 1235.06C691.202 1233.37 689.992 1232.04 688.418 1231.06C686.86 1230.08 685.021 1229.59 682.899 1229.59C680.563 1229.59 678.541 1230.17 676.834 1231.33C675.144 1232.47 673.843 1233.97 672.931 1235.81C672.02 1237.64 671.564 1239.62 671.564 1241.72V1245.1C671.564 1247.99 672.061 1250.43 673.056 1252.44C674.067 1254.42 675.467 1255.94 677.257 1256.98C679.046 1258.01 681.126 1258.53 683.496 1258.53C685.037 1258.53 686.429 1258.31 687.672 1257.88C688.932 1257.43 690.017 1256.77 690.929 1255.89C691.84 1255 692.544 1253.89 693.041 1252.56L698.709 1254.15C698.112 1256.07 697.11 1257.76 695.701 1259.22C694.293 1260.66 692.553 1261.79 690.481 1262.6C688.41 1263.4 686.081 1263.8 683.496 1263.8Z" fill="#1E191F"/>
<mask id="mask0_242_122" style="mask-type:luminance" maskUnits="userSpaceOnUse" x="521" y="990" width="200" height="200">
<path d="M721 990H521V1190H721V990Z" fill="white"/>
</mask>
<g mask="url(#mask0_242_122)">
<path d="M621 1187C674.572 1187 718 1143.57 718 1090C718 1036.43 674.572 993 621 993C567.428 993 524 1036.43 524 1090C524 1143.57 567.428 1187 621 1187Z" fill="url(#paint0_linear_242_122)"/>
<path d="M663.45 1128.65L630.65 1049.35C628.8 1045.25 626.05 1043.25 622.425 1043.25H619.525C615.9 1043.25 613.15 1045.25 611.3 1049.35L597.025 1083.9H586.225C583 1083.93 580.375 1086.53 580.35 1089.78V1089.85C580.375 1093.07 583 1095.7 586.225 1095.72H592.025L578.4 1128.65C578.15 1129.37 578 1130.12 578 1130.9C578 1132.75 578.575 1134.2 579.6 1135.32C580.625 1136.45 582.1 1137 583.95 1137C585.175 1136.97 586.35 1136.6 587.325 1135.88C588.375 1135.15 589.1 1134.1 589.675 1132.9L604.675 1095.7H615.075C618.3 1095.67 620.925 1093.07 620.95 1089.82V1089.68C620.925 1086.45 618.3 1083.83 615.075 1083.8H609.525L620.975 1055.28L652.175 1132.88C652.75 1134.07 653.475 1135.13 654.525 1135.85C655.5 1136.58 656.7 1136.95 657.9 1136.98C659.75 1136.98 661.2 1136.43 662.25 1135.3C663.3 1134.18 663.85 1132.72 663.85 1130.88C663.875 1130.12 663.75 1129.35 663.45 1128.65Z" fill="white"/>
</g>
<path d="M692 706L668.906 746H715.094L692 706ZM696 956V742H688V956H696Z" fill="#ADADAD"/>
<path d="M550 956L573.094 916H526.906L550 956ZM554 920V706H546V920H554Z" fill="#ADADAD"/>
<path d="M437 420L397 396.906V443.094L437 420ZM187 424L401 424V416L187 416V424Z" fill="#ADADAD"/>
<rect x="953" y="956" width="369" height="350" rx="20" fill="#ADADAD"/>
<path d="M1034.58 1211.09H1040.74V1244.8C1040.74 1248.28 1039.92 1251.39 1038.28 1254.12C1036.66 1256.84 1034.36 1258.98 1031.4 1260.56C1028.43 1262.12 1024.95 1262.89 1020.96 1262.89C1016.96 1262.89 1013.48 1262.12 1010.52 1260.56C1007.55 1258.98 1005.25 1256.84 1003.61 1254.12C1001.98 1251.39 1001.17 1248.28 1001.17 1244.8V1211.09H1007.33V1244.3C1007.33 1246.79 1007.88 1249 1008.98 1250.94C1010.07 1252.86 1011.63 1254.38 1013.65 1255.49C1015.69 1256.58 1018.12 1257.13 1020.96 1257.13C1023.79 1257.13 1026.23 1256.58 1028.26 1255.49C1030.3 1254.38 1031.86 1252.86 1032.94 1250.94C1034.03 1249 1034.58 1246.79 1034.58 1244.3V1211.09ZM1058.13 1239.03V1262H1052.26V1223.82H1057.93V1229.78H1058.42C1059.32 1227.85 1060.68 1226.29 1062.5 1225.11C1064.32 1223.92 1066.68 1223.32 1069.56 1223.32C1072.15 1223.32 1074.41 1223.85 1076.35 1224.91C1078.29 1225.96 1079.79 1227.55 1080.87 1229.68C1081.95 1231.81 1082.49 1234.49 1082.49 1237.74V1262H1076.62V1238.14C1076.62 1235.14 1075.84 1232.8 1074.28 1231.13C1072.73 1229.44 1070.59 1228.59 1067.87 1228.59C1066 1228.59 1064.32 1229 1062.85 1229.81C1061.39 1230.62 1060.24 1231.81 1059.39 1233.36C1058.55 1234.92 1058.13 1236.81 1058.13 1239.03ZM1093.21 1262V1223.82H1099.07V1262H1093.21ZM1096.19 1217.45C1095.05 1217.45 1094.06 1217.07 1093.23 1216.29C1092.42 1215.51 1092.01 1214.57 1092.01 1213.48C1092.01 1212.38 1092.42 1211.45 1093.23 1210.67C1094.06 1209.89 1095.05 1209.5 1096.19 1209.5C1097.33 1209.5 1098.31 1209.89 1099.12 1210.67C1099.95 1211.45 1100.37 1212.38 1100.37 1213.48C1100.37 1214.57 1099.95 1215.51 1099.12 1216.29C1098.31 1217.07 1097.33 1217.45 1096.19 1217.45ZM1136.86 1232.37L1131.59 1233.86C1131.26 1232.98 1130.77 1232.13 1130.13 1231.3C1129.5 1230.46 1128.64 1229.76 1127.54 1229.21C1126.45 1228.67 1125.05 1228.39 1123.34 1228.39C1121 1228.39 1119.06 1228.93 1117.5 1230.01C1115.96 1231.07 1115.19 1232.42 1115.19 1234.06C1115.19 1235.52 1115.72 1236.67 1116.78 1237.51C1117.84 1238.36 1119.5 1239.06 1121.75 1239.63L1127.42 1241.02C1130.83 1241.85 1133.37 1243.12 1135.05 1244.82C1136.72 1246.51 1137.56 1248.69 1137.56 1251.36C1137.56 1253.55 1136.93 1255.5 1135.67 1257.23C1134.43 1258.95 1132.69 1260.31 1130.45 1261.3C1128.21 1262.3 1125.61 1262.8 1122.64 1262.8C1118.75 1262.8 1115.53 1261.95 1112.97 1260.26C1110.42 1258.57 1108.81 1256.1 1108.13 1252.85L1113.7 1251.46C1114.23 1253.52 1115.23 1255.06 1116.7 1256.08C1118.19 1257.11 1120.14 1257.62 1122.54 1257.62C1125.28 1257.62 1127.45 1257.04 1129.06 1255.88C1130.68 1254.71 1131.49 1253.3 1131.49 1251.66C1131.49 1250.33 1131.03 1249.22 1130.1 1248.33C1129.17 1247.42 1127.75 1246.74 1125.83 1246.29L1119.46 1244.8C1115.97 1243.97 1113.4 1242.69 1111.76 1240.95C1110.13 1239.19 1109.32 1236.99 1109.32 1234.36C1109.32 1232.2 1109.93 1230.3 1111.14 1228.64C1112.36 1226.98 1114.03 1225.68 1116.13 1224.74C1118.25 1223.79 1120.66 1223.32 1123.34 1223.32C1127.12 1223.32 1130.09 1224.15 1132.24 1225.81C1134.41 1227.46 1135.95 1229.65 1136.86 1232.37ZM1155.04 1262L1143.41 1223.82H1149.57L1157.82 1253.05H1158.22L1166.38 1223.82H1172.64L1180.69 1252.95H1181.09L1189.34 1223.82H1195.51L1183.88 1262H1178.11L1169.76 1232.67H1169.16L1160.81 1262H1155.04ZM1214.5 1262.89C1212.08 1262.89 1209.89 1262.44 1207.91 1261.53C1205.94 1260.6 1204.38 1259.27 1203.22 1257.53C1202.06 1255.77 1201.48 1253.65 1201.48 1251.16C1201.48 1248.97 1201.91 1247.2 1202.77 1245.84C1203.63 1244.47 1204.78 1243.39 1206.22 1242.61C1207.66 1241.83 1209.26 1241.25 1211 1240.87C1212.75 1240.47 1214.52 1240.16 1216.29 1239.93C1218.61 1239.63 1220.49 1239.4 1221.93 1239.25C1223.39 1239.09 1224.45 1238.82 1225.11 1238.43C1225.79 1238.05 1226.13 1237.39 1226.13 1236.45V1236.25C1226.13 1233.79 1225.46 1231.89 1224.12 1230.53C1222.79 1229.17 1220.78 1228.49 1218.08 1228.49C1215.28 1228.49 1213.08 1229.1 1211.49 1230.33C1209.9 1231.56 1208.78 1232.87 1208.14 1234.26L1202.57 1232.27C1203.56 1229.95 1204.89 1228.14 1206.55 1226.85C1208.22 1225.54 1210.04 1224.63 1212.01 1224.12C1214 1223.59 1215.96 1223.32 1217.88 1223.32C1219.11 1223.32 1220.52 1223.47 1222.11 1223.77C1223.71 1224.05 1225.26 1224.64 1226.76 1225.53C1228.26 1226.43 1229.51 1227.78 1230.51 1229.59C1231.5 1231.39 1232 1233.81 1232 1236.84V1262H1226.13V1256.83H1225.84C1225.44 1257.66 1224.78 1258.54 1223.85 1259.49C1222.92 1260.43 1221.68 1261.24 1220.14 1261.9C1218.6 1262.56 1216.72 1262.89 1214.5 1262.89ZM1215.4 1257.62C1217.72 1257.62 1219.67 1257.17 1221.26 1256.26C1222.87 1255.35 1224.08 1254.17 1224.89 1252.73C1225.72 1251.29 1226.13 1249.77 1226.13 1248.18V1242.81C1225.89 1243.11 1225.34 1243.38 1224.49 1243.63C1223.66 1243.86 1222.7 1244.07 1221.61 1244.25C1220.53 1244.42 1219.48 1244.57 1218.45 1244.7C1217.44 1244.81 1216.62 1244.91 1215.99 1245C1214.47 1245.2 1213.04 1245.52 1211.72 1245.97C1210.41 1246.4 1209.35 1247.05 1208.53 1247.93C1207.74 1248.79 1207.34 1249.97 1207.34 1251.46C1207.34 1253.5 1208.1 1255.04 1209.6 1256.08C1211.13 1257.11 1213.06 1257.62 1215.4 1257.62ZM1242.71 1276.32V1223.82H1248.38V1229.88H1249.07C1249.5 1229.22 1250.1 1228.38 1250.86 1227.35C1251.64 1226.3 1252.75 1225.38 1254.19 1224.56C1255.65 1223.74 1257.62 1223.32 1260.11 1223.32C1263.32 1223.32 1266.16 1224.12 1268.61 1225.73C1271.06 1227.34 1272.98 1229.62 1274.35 1232.57C1275.73 1235.52 1276.42 1239 1276.42 1243.01C1276.42 1247.05 1275.73 1250.56 1274.35 1253.52C1272.98 1256.47 1271.07 1258.76 1268.64 1260.38C1266.2 1261.99 1263.39 1262.8 1260.21 1262.8C1257.76 1262.8 1255.79 1262.39 1254.32 1261.58C1252.84 1260.75 1251.71 1259.81 1250.91 1258.77C1250.12 1257.71 1249.5 1256.83 1249.07 1256.13H1248.57V1276.32H1242.71ZM1248.48 1242.91C1248.48 1245.79 1248.9 1248.34 1249.74 1250.54C1250.59 1252.73 1251.82 1254.44 1253.45 1255.69C1255.07 1256.91 1257.06 1257.53 1259.41 1257.53C1261.87 1257.53 1263.91 1256.88 1265.55 1255.59C1267.21 1254.28 1268.45 1252.52 1269.28 1250.32C1270.13 1248.1 1270.55 1245.63 1270.55 1242.91C1270.55 1240.22 1270.13 1237.8 1269.31 1235.65C1268.49 1233.48 1267.26 1231.76 1265.6 1230.5C1263.96 1229.23 1261.9 1228.59 1259.41 1228.59C1257.03 1228.59 1255.02 1229.2 1253.4 1230.41C1251.77 1231.6 1250.55 1233.27 1249.72 1235.43C1248.89 1237.56 1248.48 1240.06 1248.48 1242.91Z" fill="#1E191F"/>
<path d="M1118.15 1035.52C1115.99 1035.19 1115.9 1035.15 1116.92 1034.99C1118.86 1034.69 1123.46 1035.1 1126.63 1035.85C1134.02 1037.61 1140.75 1042.11 1147.93 1050.11L1149.83 1052.23L1152.56 1051.79C1164.06 1049.94 1175.76 1051.41 1185.54 1055.93C1188.23 1057.18 1192.48 1059.65 1193.01 1060.29C1193.18 1060.49 1193.49 1061.79 1193.7 1063.19C1194.42 1068 1194.06 1071.7 1192.59 1074.45C1191.78 1075.95 1191.74 1076.43 1192.28 1077.71C1192.71 1078.74 1193.91 1079.5 1195.1 1079.5C1197.53 1079.49 1200.14 1075.56 1201.36 1070.09L1201.84 1067.92L1202.79 1069C1208.03 1074.93 1212.14 1083.02 1212.84 1088.77L1213.03 1090.27L1212.15 1088.91C1210.63 1086.56 1209.11 1084.96 1207.16 1083.67C1203.65 1081.35 1199.94 1080.56 1190.11 1080.04C1181.23 1079.57 1176.2 1078.82 1171.22 1077.19C1162.74 1074.43 1158.46 1070.74 1148.39 1057.53C1143.92 1051.66 1141.15 1048.41 1138.4 1045.8C1132.15 1039.86 1126.01 1036.74 1118.15 1035.52Z" fill="#FF007A"/>
<path d="M1195.01 1048.62C1195.23 1044.69 1195.77 1042.1 1196.84 1039.73C1197.26 1038.79 1197.66 1038.02 1197.72 1038.02C1197.78 1038.02 1197.6 1038.71 1197.31 1039.56C1196.53 1041.86 1196.4 1045 1196.94 1048.66C1197.62 1053.31 1198.01 1053.97 1202.92 1058.99C1205.22 1061.34 1207.9 1064.31 1208.87 1065.58L1210.63 1067.9L1208.87 1066.24C1206.71 1064.22 1201.75 1060.27 1200.65 1059.71C1199.91 1059.33 1199.8 1059.34 1199.35 1059.79C1198.93 1060.2 1198.85 1060.83 1198.79 1063.78C1198.7 1068.39 1198.07 1071.34 1196.56 1074.29C1195.74 1075.89 1195.61 1075.55 1196.35 1073.75C1196.9 1072.4 1196.96 1071.81 1196.95 1067.35C1196.95 1058.4 1195.88 1056.25 1189.65 1052.56C1188.07 1051.62 1185.47 1050.28 1183.87 1049.56C1182.26 1048.85 1180.99 1048.23 1181.04 1048.18C1181.22 1048.01 1187.3 1049.78 1189.74 1050.72C1193.38 1052.12 1193.98 1052.31 1194.43 1052.14C1194.72 1052.02 1194.86 1051.16 1195.01 1048.62Z" fill="#FF007A"/>
<path d="M1122.34 1063.94C1117.96 1057.91 1115.25 1048.66 1115.84 1041.75L1116.02 1039.61L1117.02 1039.79C1118.89 1040.13 1122.12 1041.34 1123.63 1042.26C1127.78 1044.78 1129.57 1048.09 1131.4 1056.61C1131.94 1059.11 1132.64 1061.93 1132.96 1062.89C1133.48 1064.43 1135.45 1068.02 1137.05 1070.36C1138.2 1072.04 1137.44 1072.83 1134.89 1072.6C1131 1072.25 1125.74 1068.62 1122.34 1063.94Z" fill="#FF007A"/>
<path d="M1189.7 1108.84C1169.22 1100.59 1162.01 1093.44 1162.01 1081.36C1162.01 1079.59 1162.07 1078.13 1162.14 1078.13C1162.22 1078.13 1163.01 1078.72 1163.9 1079.44C1168.06 1082.77 1172.71 1084.19 1185.58 1086.07C1193.15 1087.17 1197.41 1088.06 1201.35 1089.37C1213.84 1093.51 1221.57 1101.92 1223.42 1113.38C1223.95 1116.71 1223.64 1122.95 1222.77 1126.24C1222.08 1128.84 1219.99 1133.52 1219.44 1133.7C1219.28 1133.75 1219.13 1133.16 1219.09 1132.36C1218.88 1128.06 1216.71 1123.87 1213.06 1120.73C1208.91 1117.17 1203.33 1114.33 1189.7 1108.84Z" fill="#FF007A"/>
<path d="M1175.32 1112.26C1175.06 1110.73 1174.62 1108.78 1174.33 1107.93L1173.81 1106.37L1174.78 1107.46C1176.12 1108.97 1177.18 1110.89 1178.08 1113.46C1178.77 1115.42 1178.85 1116.01 1178.84 1119.19C1178.84 1122.32 1178.75 1122.98 1178.12 1124.74C1177.12 1127.52 1175.88 1129.5 1173.8 1131.62C1170.06 1135.42 1165.25 1137.53 1158.31 1138.4C1157.1 1138.55 1153.59 1138.81 1150.5 1138.97C1142.71 1139.38 1137.58 1140.21 1132.97 1141.83C1132.31 1142.06 1131.72 1142.2 1131.66 1142.15C1131.47 1141.96 1134.61 1140.09 1137.2 1138.84C1140.85 1137.08 1144.49 1136.12 1152.64 1134.77C1156.66 1134.1 1160.82 1133.28 1161.87 1132.96C1171.84 1129.9 1176.96 1122.02 1175.32 1112.26Z" fill="#FF007A"/>
<path d="M1184.71 1128.93C1181.99 1123.08 1181.36 1117.43 1182.85 1112.17C1183.01 1111.61 1183.27 1111.14 1183.42 1111.14C1183.58 1111.14 1184.22 1111.49 1184.85 1111.92C1186.1 1112.76 1188.62 1114.18 1195.31 1117.83C1203.67 1122.39 1208.44 1125.92 1211.68 1129.95C1214.52 1133.48 1216.27 1137.5 1217.12 1142.41C1217.6 1145.18 1217.32 1151.87 1216.6 1154.66C1214.36 1163.48 1209.13 1170.41 1201.68 1174.45C1200.59 1175.04 1199.61 1175.53 1199.51 1175.53C1199.4 1175.54 1199.8 1174.52 1200.39 1173.29C1202.9 1168.05 1203.18 1162.95 1201.29 1157.28C1200.13 1153.81 1197.76 1149.57 1192.99 1142.41C1187.43 1134.08 1186.07 1131.86 1184.71 1128.93Z" fill="#FF007A"/>
<path d="M1107.8 1160.48C1115.4 1154.07 1124.85 1149.51 1133.47 1148.11C1137.18 1147.51 1143.36 1147.75 1146.8 1148.63C1152.3 1150.04 1157.23 1153.19 1159.8 1156.96C1162.3 1160.63 1163.37 1163.84 1164.49 1170.97C1164.93 1173.78 1165.41 1176.6 1165.56 1177.24C1166.4 1180.94 1168.03 1183.89 1170.06 1185.37C1173.28 1187.73 1178.82 1187.87 1184.27 1185.75C1185.2 1185.39 1186 1185.14 1186.06 1185.19C1186.25 1185.39 1183.51 1187.23 1181.57 1188.2C1178.97 1189.5 1176.89 1190 1174.14 1190C1169.15 1190 1165 1187.46 1161.55 1182.28C1160.87 1181.26 1159.34 1178.21 1158.15 1175.5C1154.5 1167.17 1152.69 1164.63 1148.45 1161.86C1144.76 1159.44 1140 1159.01 1136.42 1160.76C1131.72 1163.07 1130.41 1169.08 1133.78 1172.89C1135.12 1174.4 1137.61 1175.7 1139.65 1175.96C1143.47 1176.43 1146.75 1173.53 1146.75 1169.67C1146.75 1167.17 1145.79 1165.74 1143.37 1164.65C1140.06 1163.16 1136.51 1164.9 1136.52 1168.01C1136.53 1169.33 1137.11 1170.17 1138.44 1170.77C1139.29 1171.15 1139.31 1171.18 1138.61 1171.04C1135.58 1170.41 1134.87 1166.75 1137.31 1164.32C1140.24 1161.4 1146.3 1162.69 1148.38 1166.67C1149.25 1168.34 1149.35 1171.67 1148.59 1173.68C1146.88 1178.18 1141.91 1180.55 1136.87 1179.26C1133.43 1178.39 1132.03 1177.44 1127.89 1173.17C1120.7 1165.76 1117.9 1164.32 1107.53 1162.7L1105.54 1162.39L1107.8 1160.48Z" fill="#FF007A"/>
<path fill-rule="evenodd" clip-rule="evenodd" d="M1053.54 994.434C1077.57 1023.6 1114.62 1069.01 1116.46 1071.55C1117.98 1073.65 1117.41 1075.54 1114.8 1077.02C1113.36 1077.84 1110.38 1078.68 1108.89 1078.68C1107.21 1078.68 1105.31 1077.86 1103.93 1076.55C1102.95 1075.63 1099.01 1069.74 1089.91 1055.62C1082.95 1044.82 1077.12 1035.85 1076.96 1035.7C1076.59 1035.35 1076.6 1035.37 1089.2 1057.91C1097.11 1072.07 1099.78 1077.08 1099.78 1077.75C1099.78 1079.11 1099.41 1079.82 1097.73 1081.7C1094.93 1084.82 1093.68 1088.33 1092.78 1095.59C1091.76 1103.73 1088.92 1109.49 1081.02 1119.33C1076.4 1125.09 1075.65 1126.15 1074.48 1128.47C1073.01 1131.4 1072.61 1133.03 1072.45 1136.73C1072.27 1140.63 1072.61 1143.15 1073.8 1146.89C1074.85 1150.16 1075.94 1152.31 1078.72 1156.63C1081.13 1160.36 1082.51 1163.12 1082.51 1164.21C1082.51 1165.07 1082.68 1165.07 1086.41 1164.23C1095.32 1162.21 1102.57 1158.67 1106.64 1154.33C1109.16 1151.64 1109.75 1150.16 1109.77 1146.48C1109.78 1144.07 1109.7 1143.57 1109.05 1142.18C1107.99 1139.92 1106.06 1138.05 1101.81 1135.14C1096.24 1131.33 1093.86 1128.27 1093.2 1124.05C1092.66 1120.59 1093.29 1118.15 1096.37 1111.69C1099.56 1105 1100.35 1102.15 1100.88 1095.41C1101.23 1091.06 1101.71 1089.34 1102.96 1087.96C1104.26 1086.53 1105.44 1086.04 1108.67 1085.6C1113.93 1084.88 1117.28 1083.52 1120.04 1080.98C1122.43 1078.78 1123.43 1076.65 1123.58 1073.46L1123.7 1071.04L1122.36 1069.48C1117.53 1063.84 1050.3 990 1050 990C1049.94 990 1051.53 991.995 1053.54 994.434ZM1085.23 1141.14C1086.32 1139.21 1085.74 1136.72 1083.91 1135.5C1082.18 1134.35 1079.5 1134.89 1079.5 1136.39C1079.5 1136.85 1079.75 1137.18 1080.32 1137.47C1081.28 1137.97 1081.35 1138.52 1080.6 1139.66C1079.83 1140.81 1079.89 1141.82 1080.77 1142.5C1082.18 1143.61 1084.18 1143 1085.23 1141.14Z" fill="#FF007A"/>
<path fill-rule="evenodd" clip-rule="evenodd" d="M1127.02 1086.87C1124.55 1087.63 1122.15 1090.25 1121.4 1093C1120.95 1094.67 1121.21 1097.61 1121.89 1098.52C1122.99 1099.98 1124.05 1100.37 1126.92 1100.35C1132.55 1100.31 1137.44 1097.9 1138.01 1094.88C1138.48 1092.41 1136.33 1088.98 1133.37 1087.47C1131.84 1086.7 1128.59 1086.39 1127.02 1086.87ZM1133.6 1092.02C1134.47 1090.78 1134.09 1089.45 1132.61 1088.55C1129.8 1086.83 1125.55 1088.25 1125.55 1090.91C1125.55 1092.23 1127.77 1093.67 1129.8 1093.67C1131.15 1093.67 1133 1092.86 1133.6 1092.02Z" fill="#FF007A"/>
<rect x="437" y="133" width="885" height="573" rx="20" fill="#ADADAD"/>
<path d="M779 274C779 218.769 823.769 174 879 174C934.225 174 979 218.769 979 274C979 329.225 934.225 374 879 374C823.769 374 779 329.225 779 274Z" fill="url(#paint1_linear_242_122)"/>
<path fill-rule="evenodd" clip-rule="evenodd" d="M911.986 262.249C913.878 266.58 914.897 271.242 914.986 275.968C915.005 276.062 915.005 276.159 914.986 276.254V341.878C914.986 342.937 914.565 343.953 913.816 344.702C913.067 345.452 912.051 345.872 910.992 345.872C909.932 345.872 908.916 345.452 908.167 344.702C907.418 343.953 906.997 342.937 906.997 341.878V330.254C906.997 329.195 906.576 328.179 905.827 327.43C905.078 326.681 904.062 326.26 903.003 326.26C901.943 326.26 900.927 326.681 900.178 327.43C899.429 328.179 899.008 329.195 899.008 330.254V335.763C899.005 336.827 898.58 337.847 897.825 338.598C897.071 339.349 896.049 339.77 894.984 339.767C893.919 339.765 892.899 339.339 892.148 338.584C891.397 337.83 890.977 336.808 890.979 335.743V330.235C890.925 328.094 889.204 326.353 887.064 326.314C886.002 326.293 884.974 326.694 884.207 327.428C883.44 328.163 882.995 329.172 882.971 330.235V331.749C882.971 332.808 882.55 333.824 881.801 334.573C881.052 335.322 880.036 335.743 878.976 335.743C877.917 335.743 876.901 335.322 876.152 334.573C875.402 333.824 874.982 332.808 874.982 331.749V330.235C874.982 329.175 874.561 328.159 873.812 327.41C873.062 326.661 872.046 326.24 870.987 326.24C869.928 326.24 868.912 326.661 868.162 327.41C867.413 328.159 866.992 329.175 866.992 330.235V335.743C866.969 336.775 866.548 337.759 865.818 338.489C865.088 339.219 864.104 339.64 863.072 339.664C860.853 339.703 859.038 337.962 858.979 335.743V330.235C858.979 329.175 858.558 328.159 857.809 327.41C857.06 326.661 856.044 326.24 854.984 326.24C853.925 326.24 852.909 326.661 852.16 327.41C851.41 328.159 850.99 329.175 850.99 330.235V341.858C850.99 342.918 850.569 343.934 849.82 344.683C849.07 345.432 848.054 345.853 846.995 345.853C845.936 345.853 844.92 345.432 844.17 344.683C843.421 343.934 843 342.918 843 341.858V276.234C843 276.2 843.005 276.161 843.009 276.12C843.015 276.072 843.02 276.021 843.02 275.968C843.193 266.661 846.968 257.784 853.55 251.202C860.131 244.62 869.009 240.846 878.315 240.673C883.041 240.581 887.738 241.422 892.139 243.146C896.54 244.871 900.558 247.445 903.963 250.723C907.369 254 910.095 257.917 911.986 262.249ZM859.324 274.395C859.324 278.468 862.184 281.743 865.72 281.743H865.725C869.261 281.743 872.121 278.468 872.121 274.395C872.121 270.326 869.246 267.047 865.725 267.047C862.199 267.047 859.324 270.326 859.324 274.395ZM873.468 293.838C873.468 296.205 876.062 298.119 879.282 298.119C882.497 298.099 885.091 296.185 885.091 293.838C885.091 292.213 883.84 292.394 882.008 292.659C881.195 292.777 880.266 292.911 879.282 292.911C878.295 292.911 877.364 292.774 876.548 292.654C874.718 292.385 873.468 292.201 873.468 293.838ZM885.89 274.395C885.89 278.468 888.745 281.743 892.286 281.743C895.807 281.743 898.687 278.468 898.687 274.395C898.687 270.326 895.827 267.047 892.286 267.047C888.75 267.047 885.89 270.326 885.89 274.395ZM881.334 285.471L881.241 285.496C879.217 286.075 878.783 286.075 876.615 285.496C876.572 285.484 876.529 285.473 876.485 285.461C872.303 284.306 866.581 282.725 861 294.316C865.598 290.386 869.472 290.373 872.731 290.361C875.109 290.353 877.16 290.346 878.928 288.822C880.757 290.346 882.844 290.353 885.241 290.361C888.529 290.373 892.402 290.386 897 294.316C891.403 282.691 885.522 284.315 881.334 285.471Z" fill="white"/>
<path d="M861 227.689C864.596 210.117 868.688 205.212 878.163 204.666C887.854 204.686 893.365 210.702 897 227.689C882.823 230.079 874.901 230.017 861 227.689Z" fill="white" stroke="white" stroke-linejoin="round"/>
<path d="M819.187 235.822C819.083 235.219 819.55 234.666 820.162 234.666H937.947C938.52 234.666 938.976 235.153 938.936 235.724C937.712 253.182 928.477 260.162 883 261.666C836.113 262.211 822.685 256.057 819.187 235.822Z" fill="white" stroke="white" stroke-linejoin="round"/>
<path d="M560.479 415.464C560.214 413.111 559.121 411.288 557.198 409.996C555.276 408.687 552.856 408.032 549.94 408.032C547.852 408.032 546.045 408.363 544.521 409.026C542.996 409.673 541.811 410.567 540.966 411.711C540.137 412.838 539.723 414.122 539.723 415.564C539.723 416.774 540.005 417.818 540.568 418.696C541.148 419.574 541.902 420.312 542.83 420.908C543.775 421.488 544.786 421.977 545.863 422.375C546.94 422.756 547.976 423.071 548.97 423.32L553.942 424.612C555.566 425.01 557.231 425.549 558.938 426.228C560.645 426.907 562.228 427.802 563.686 428.913C565.145 430.023 566.321 431.398 567.216 433.039C568.127 434.68 568.583 436.643 568.583 438.93C568.583 441.814 567.837 444.374 566.346 446.612C564.871 448.849 562.725 450.614 559.908 451.906C557.107 453.199 553.718 453.845 549.741 453.845C545.929 453.845 542.631 453.24 539.847 452.031C537.063 450.821 534.884 449.106 533.31 446.885C531.735 444.648 530.865 441.996 530.7 438.93H538.406C538.555 440.77 539.151 442.303 540.195 443.529C541.256 444.739 542.607 445.642 544.247 446.239C545.904 446.819 547.719 447.109 549.691 447.109C551.862 447.109 553.793 446.769 555.483 446.089C557.19 445.393 558.532 444.432 559.51 443.206C560.488 441.963 560.977 440.513 560.977 438.856C560.977 437.348 560.546 436.113 559.684 435.152C558.839 434.191 557.687 433.395 556.229 432.766C554.787 432.136 553.155 431.581 551.332 431.1L545.316 429.46C541.239 428.349 538.008 426.717 535.622 424.562C533.252 422.408 532.067 419.558 532.067 416.011C532.067 413.078 532.862 410.518 534.453 408.33C536.044 406.143 538.198 404.444 540.916 403.234C543.634 402.008 546.7 401.395 550.114 401.395C553.561 401.395 556.602 402 559.237 403.21C561.888 404.419 563.976 406.085 565.501 408.206C567.025 410.311 567.821 412.73 567.887 415.464H560.479ZM594.989 414.818V420.784H574.133V414.818H594.989ZM579.726 405.67H587.158V441.789C587.158 443.231 587.374 444.316 587.805 445.045C588.235 445.758 588.791 446.247 589.47 446.512C590.166 446.761 590.92 446.885 591.732 446.885C592.329 446.885 592.851 446.844 593.298 446.761C593.746 446.678 594.094 446.612 594.342 446.562L595.685 452.702C595.254 452.867 594.641 453.033 593.845 453.199C593.05 453.381 592.055 453.481 590.862 453.497C588.907 453.53 587.084 453.182 585.393 452.453C583.703 451.724 582.336 450.597 581.292 449.072C580.248 447.548 579.726 445.634 579.726 443.33V405.67ZM614.322 453.845C611.902 453.845 609.715 453.398 607.759 452.503C605.804 451.591 604.254 450.274 603.111 448.55C601.984 446.827 601.421 444.714 601.421 442.212C601.421 440.057 601.835 438.284 602.663 436.892C603.492 435.5 604.611 434.398 606.019 433.586C607.428 432.774 609.002 432.161 610.742 431.746C612.482 431.332 614.256 431.017 616.062 430.802C618.349 430.537 620.205 430.321 621.63 430.156C623.055 429.973 624.091 429.683 624.737 429.286C625.384 428.888 625.707 428.241 625.707 427.347V427.173C625.707 425.002 625.094 423.32 623.867 422.126C622.658 420.933 620.851 420.337 618.448 420.337C615.946 420.337 613.974 420.892 612.532 422.002C611.107 423.096 610.121 424.314 609.574 425.656L602.589 424.065C603.417 421.745 604.627 419.873 606.218 418.447C607.826 417.006 609.673 415.962 611.761 415.315C613.85 414.652 616.045 414.321 618.349 414.321C619.873 414.321 621.489 414.503 623.196 414.868C624.92 415.216 626.527 415.862 628.019 416.807C629.527 417.751 630.761 419.102 631.722 420.859C632.684 422.599 633.164 424.861 633.164 427.645V453H625.906V447.78H625.607C625.127 448.741 624.406 449.686 623.445 450.614C622.484 451.542 621.249 452.312 619.741 452.925C618.233 453.539 616.426 453.845 614.322 453.845ZM615.938 447.879C617.993 447.879 619.749 447.473 621.207 446.661C622.682 445.849 623.801 444.789 624.563 443.479C625.342 442.154 625.732 440.737 625.732 439.229V434.307C625.466 434.572 624.953 434.821 624.19 435.053C623.445 435.268 622.591 435.459 621.63 435.624C620.669 435.773 619.733 435.914 618.821 436.047C617.91 436.163 617.147 436.262 616.534 436.345C615.092 436.527 613.775 436.834 612.582 437.265C611.405 437.696 610.461 438.317 609.748 439.129C609.052 439.925 608.704 440.985 608.704 442.311C608.704 444.151 609.383 445.543 610.742 446.487C612.101 447.415 613.833 447.879 615.938 447.879ZM643.66 453V402.091H651.093V421.008H651.54C651.971 420.212 652.593 419.293 653.405 418.249C654.217 417.205 655.344 416.293 656.785 415.514C658.227 414.719 660.133 414.321 662.503 414.321C665.585 414.321 668.336 415.1 670.756 416.658C673.175 418.215 675.073 420.461 676.448 423.394C677.84 426.327 678.536 429.857 678.536 433.984C678.536 438.11 677.848 441.648 676.473 444.598C675.097 447.531 673.208 449.793 670.805 451.384C668.402 452.959 665.66 453.746 662.577 453.746C660.257 453.746 658.36 453.356 656.885 452.577C655.427 451.799 654.283 450.887 653.454 449.843C652.626 448.799 651.988 447.871 651.54 447.059H650.919V453H643.66ZM650.944 433.909C650.944 436.594 651.333 438.947 652.112 440.969C652.891 442.991 654.018 444.573 655.493 445.717C656.968 446.844 658.774 447.407 660.912 447.407C663.132 447.407 664.989 446.819 666.48 445.642C667.972 444.449 669.098 442.833 669.861 440.795C670.64 438.756 671.029 436.461 671.029 433.909C671.029 431.39 670.648 429.128 669.886 427.123C669.14 425.118 668.013 423.535 666.505 422.375C665.013 421.215 663.149 420.635 660.912 420.635C658.757 420.635 656.935 421.19 655.443 422.3C653.968 423.411 652.85 424.96 652.087 426.949C651.325 428.937 650.944 431.258 650.944 433.909ZM694.315 402.091V453H686.882V402.091H694.315ZM720.77 453.771C717.008 453.771 713.768 452.967 711.05 451.359C708.349 449.735 706.261 447.457 704.786 444.523C703.328 441.574 702.599 438.118 702.599 434.158C702.599 430.247 703.328 426.8 704.786 423.817C706.261 420.834 708.316 418.505 710.951 416.832C713.602 415.158 716.701 414.321 720.248 414.321C722.402 414.321 724.49 414.677 726.512 415.39C728.534 416.103 730.348 417.221 731.956 418.746C733.563 420.27 734.831 422.251 735.759 424.687C736.687 427.106 737.151 430.048 737.151 433.511V436.146H706.8V430.578H729.868C729.868 428.623 729.47 426.891 728.675 425.383C727.879 423.858 726.761 422.657 725.319 421.778C723.894 420.9 722.22 420.461 720.297 420.461C718.209 420.461 716.387 420.975 714.829 422.002C713.288 423.013 712.094 424.339 711.249 425.979C710.421 427.603 710.006 429.368 710.006 431.274V435.624C710.006 438.176 710.454 440.347 711.349 442.137C712.26 443.927 713.528 445.294 715.152 446.239C716.776 447.167 718.673 447.631 720.844 447.631C722.253 447.631 723.537 447.432 724.697 447.034C725.857 446.62 726.86 446.007 727.705 445.195C728.55 444.383 729.197 443.38 729.644 442.187L736.679 443.455C736.115 445.526 735.105 447.341 733.646 448.898C732.204 450.44 730.39 451.641 728.202 452.503C726.031 453.348 723.554 453.771 720.77 453.771ZM792.286 415.464C792.021 413.111 790.927 411.288 789.005 409.996C787.083 408.687 784.663 408.032 781.746 408.032C779.658 408.032 777.852 408.363 776.327 409.026C774.803 409.673 773.618 410.567 772.773 411.711C771.944 412.838 771.53 414.122 771.53 415.564C771.53 416.774 771.811 417.818 772.375 418.696C772.955 419.574 773.709 420.312 774.637 420.908C775.582 421.488 776.592 421.977 777.67 422.375C778.747 422.756 779.783 423.071 780.777 423.32L785.748 424.612C787.373 425.01 789.038 425.549 790.745 426.228C792.452 426.907 794.034 427.802 795.493 428.913C796.951 430.023 798.128 431.398 799.023 433.039C799.934 434.68 800.39 436.643 800.39 438.93C800.39 441.814 799.644 444.374 798.153 446.612C796.678 448.849 794.532 450.614 791.714 451.906C788.914 453.199 785.525 453.845 781.547 453.845C777.736 453.845 774.438 453.24 771.654 452.031C768.87 450.821 766.691 449.106 765.116 446.885C763.542 444.648 762.672 441.996 762.506 438.93H770.212C770.361 440.77 770.958 442.303 772.002 443.529C773.063 444.739 774.413 445.642 776.054 446.239C777.711 446.819 779.526 447.109 781.498 447.109C783.669 447.109 785.599 446.769 787.29 446.089C788.997 445.393 790.339 444.432 791.317 443.206C792.294 441.963 792.783 440.513 792.783 438.856C792.783 437.348 792.352 436.113 791.491 435.152C790.646 434.191 789.494 433.395 788.035 432.766C786.594 432.136 784.961 431.581 783.138 431.1L777.123 429.46C773.046 428.349 769.815 426.717 767.428 424.562C765.058 422.408 763.873 419.558 763.873 416.011C763.873 413.078 764.669 410.518 766.26 408.33C767.851 406.143 770.005 404.444 772.723 403.234C775.441 402.008 778.507 401.395 781.92 401.395C785.367 401.395 788.408 402 791.043 403.21C793.695 404.419 795.783 406.085 797.307 408.206C798.832 410.311 799.628 412.73 799.694 415.464H792.286ZM816.405 430.33V453H808.972V402.091H816.305V421.033H816.777C817.672 418.978 819.04 417.345 820.879 416.136C822.718 414.926 825.121 414.321 828.088 414.321C830.706 414.321 832.993 414.86 834.949 415.937C836.921 417.014 838.445 418.621 839.522 420.759C840.616 422.88 841.163 425.532 841.163 428.714V453H833.731V429.609C833.731 426.808 833.01 424.637 831.568 423.096C830.126 421.538 828.121 420.759 825.552 420.759C823.796 420.759 822.221 421.132 820.829 421.878C819.454 422.624 818.368 423.717 817.573 425.159C816.794 426.584 816.405 428.308 816.405 430.33ZM867.165 453.771C863.585 453.771 860.461 452.95 857.793 451.31C855.125 449.669 853.053 447.374 851.579 444.424C850.104 441.474 849.366 438.027 849.366 434.083C849.366 430.122 850.104 426.659 851.579 423.692C853.053 420.726 855.125 418.423 857.793 416.782C860.461 415.141 863.585 414.321 867.165 414.321C870.744 414.321 873.868 415.141 876.536 416.782C879.204 418.423 881.276 420.726 882.75 423.692C884.225 426.659 884.963 430.122 884.963 434.083C884.963 438.027 884.225 441.474 882.75 444.424C881.276 447.374 879.204 449.669 876.536 451.31C873.868 452.95 870.744 453.771 867.165 453.771ZM867.189 447.531C869.509 447.531 871.432 446.918 872.956 445.692C874.481 444.465 875.608 442.833 876.337 440.795C877.083 438.756 877.456 436.511 877.456 434.058C877.456 431.622 877.083 429.385 876.337 427.347C875.608 425.292 874.481 423.643 872.956 422.4C871.432 421.157 869.509 420.536 867.189 420.536C864.853 420.536 862.914 421.157 861.373 422.4C859.848 423.643 858.713 425.292 857.967 427.347C857.238 429.385 856.873 431.622 856.873 434.058C856.873 436.511 857.238 438.756 857.967 440.795C858.713 442.833 859.848 444.465 861.373 445.692C862.914 446.918 864.853 447.531 867.189 447.531ZM893.259 453V414.818H900.443V420.884H900.841C901.537 418.829 902.763 417.213 904.52 416.036C906.293 414.843 908.298 414.246 910.535 414.246C910.999 414.246 911.546 414.263 912.176 414.296C912.822 414.329 913.328 414.371 913.692 414.42V421.53C913.394 421.447 912.864 421.356 912.101 421.256C911.339 421.14 910.577 421.082 909.815 421.082C908.058 421.082 906.492 421.455 905.116 422.201C903.757 422.93 902.68 423.949 901.885 425.259C901.089 426.551 900.692 428.026 900.692 429.683V453H893.259ZM940.203 414.818V420.784H919.348V414.818H940.203ZM924.941 405.67H932.373V441.789C932.373 443.231 932.589 444.316 933.019 445.045C933.45 445.758 934.005 446.247 934.685 446.512C935.381 446.761 936.135 446.885 936.947 446.885C937.544 446.885 938.066 446.844 938.513 446.761C938.96 446.678 939.309 446.612 939.557 446.562L940.899 452.702C940.469 452.867 939.855 453.033 939.06 453.199C938.264 453.381 937.27 453.481 936.077 453.497C934.121 453.53 932.299 453.182 930.608 452.453C928.918 451.724 927.551 450.597 926.507 449.072C925.463 447.548 924.941 445.634 924.941 443.33V405.67ZM967.547 453V402.091H985.693C989.654 402.091 992.935 402.812 995.537 404.254C998.139 405.695 1000.09 407.667 1001.38 410.17C1002.67 412.656 1003.32 415.456 1003.32 418.572C1003.32 421.704 1002.66 424.521 1001.35 427.023C1000.06 429.509 998.106 431.481 995.487 432.94C992.886 434.381 989.613 435.102 985.669 435.102L973.19 435.102V428.589L984.973 428.589C987.475 428.589 989.505 428.159 991.063 427.297C992.621 426.419 993.764 425.225 994.493 423.717C995.222 422.209 995.587 420.494 995.587 418.572C995.587 416.649 995.222 414.942 994.493 413.451C993.764 411.96 992.612 410.791 991.038 409.946C989.48 409.101 987.425 408.678 984.873 408.678H975.228V453H967.547ZM1027.33 453.771C1023.75 453.771 1020.63 452.95 1017.96 451.31C1015.29 449.669 1013.22 447.374 1011.74 444.424C1010.27 441.474 1009.53 438.027 1009.53 434.083C1009.53 430.122 1010.27 426.659 1011.74 423.692C1013.22 420.726 1015.29 418.423 1017.96 416.782C1020.63 415.141 1023.75 414.321 1027.33 414.321C1030.91 414.321 1034.03 415.141 1036.7 416.782C1039.37 418.423 1041.44 420.726 1042.92 423.692C1044.39 426.659 1045.13 430.122 1045.13 434.083C1045.13 438.027 1044.39 441.474 1042.92 444.424C1041.44 447.374 1039.37 449.669 1036.7 451.31C1034.03 452.95 1030.91 453.771 1027.33 453.771ZM1027.36 447.531C1029.68 447.531 1031.6 446.918 1033.12 445.692C1034.65 444.465 1035.77 442.833 1036.5 440.795C1037.25 438.756 1037.62 436.511 1037.62 434.058C1037.62 431.622 1037.25 429.385 1036.5 427.347C1035.77 425.292 1034.65 423.643 1033.12 422.4C1031.6 421.157 1029.68 420.536 1027.36 420.536C1025.02 420.536 1023.08 421.157 1021.54 422.4C1020.01 423.643 1018.88 425.292 1018.13 427.347C1017.4 429.385 1017.04 431.622 1017.04 434.058C1017.04 436.511 1017.4 438.756 1018.13 440.795C1018.88 442.833 1020.01 444.465 1021.54 445.692C1023.08 446.918 1025.02 447.531 1027.36 447.531ZM1082.04 424.14L1075.3 425.333C1075.02 424.471 1074.57 423.651 1073.96 422.872C1073.36 422.093 1072.55 421.455 1071.52 420.958C1070.49 420.461 1069.21 420.212 1067.67 420.212C1065.56 420.212 1063.81 420.685 1062.4 421.629C1060.99 422.557 1060.29 423.759 1060.29 425.234C1060.29 426.51 1060.76 427.537 1061.7 428.316C1062.65 429.095 1064.17 429.733 1066.28 430.23L1072.34 431.622C1075.86 432.434 1078.47 433.685 1080.2 435.376C1081.92 437.066 1082.78 439.262 1082.78 441.963C1082.78 444.25 1082.12 446.288 1080.79 448.078C1079.48 449.851 1077.65 451.243 1075.3 452.254C1072.96 453.265 1070.25 453.771 1067.17 453.771C1062.9 453.771 1059.41 452.859 1056.71 451.036C1054.01 449.197 1052.35 446.587 1051.73 443.206L1058.92 442.112C1059.37 443.985 1060.29 445.402 1061.68 446.363C1063.07 447.308 1064.88 447.78 1067.12 447.78C1069.56 447.78 1071.51 447.274 1072.96 446.263C1074.42 445.236 1075.15 443.985 1075.15 442.51C1075.15 441.317 1074.7 440.314 1073.81 439.502C1072.93 438.69 1071.58 438.077 1069.76 437.663L1063.29 436.246C1059.73 435.434 1057.1 434.141 1055.39 432.368C1053.7 430.595 1052.85 428.349 1052.85 425.631C1052.85 423.378 1053.48 421.406 1054.74 419.715C1056 418.025 1057.74 416.707 1059.96 415.763C1062.18 414.802 1064.73 414.321 1067.59 414.321C1071.72 414.321 1074.97 415.216 1077.34 417.006C1079.71 418.779 1081.27 421.157 1082.04 424.14ZM1090.95 453V414.818H1098.39V453H1090.95ZM1094.71 408.927C1093.42 408.927 1092.31 408.496 1091.38 407.634C1090.47 406.756 1090.01 405.712 1090.01 404.502C1090.01 403.276 1090.47 402.232 1091.38 401.37C1092.31 400.492 1093.42 400.053 1094.71 400.053C1096 400.053 1097.1 400.492 1098.01 401.37C1098.94 402.232 1099.41 403.276 1099.41 404.502C1099.41 405.712 1098.94 406.756 1098.01 407.634C1097.1 408.496 1096 408.927 1094.71 408.927ZM1126.21 414.818V420.784H1105.35V414.818H1126.21ZM1110.95 405.67H1118.38V441.789C1118.38 443.231 1118.59 444.316 1119.03 445.045C1119.46 445.758 1120.01 446.247 1120.69 446.512C1121.39 446.761 1122.14 446.885 1122.95 446.885C1123.55 446.885 1124.07 446.844 1124.52 446.761C1124.97 446.678 1125.31 446.612 1125.56 446.562L1126.91 452.702C1126.47 452.867 1125.86 453.033 1125.07 453.199C1124.27 453.381 1123.28 453.481 1122.08 453.497C1120.13 453.53 1118.3 453.182 1116.61 452.453C1114.92 451.724 1113.56 450.597 1112.51 449.072C1111.47 447.548 1110.95 445.634 1110.95 443.33V405.67ZM1134.43 453V414.818H1141.86V453H1134.43ZM1138.18 408.927C1136.89 408.927 1135.78 408.496 1134.85 407.634C1133.94 406.756 1133.49 405.712 1133.49 404.502C1133.49 403.276 1133.94 402.232 1134.85 401.37C1135.78 400.492 1136.89 400.053 1138.18 400.053C1139.48 400.053 1140.58 400.492 1141.49 401.37C1142.42 402.232 1142.88 403.276 1142.88 404.502C1142.88 405.712 1142.42 406.756 1141.49 407.634C1140.58 408.496 1139.48 408.927 1138.18 408.927ZM1167.95 453.771C1164.37 453.771 1161.24 452.95 1158.57 451.31C1155.91 449.669 1153.83 447.374 1152.36 444.424C1150.88 441.474 1150.15 438.027 1150.15 434.083C1150.15 430.122 1150.88 426.659 1152.36 423.692C1153.83 420.726 1155.91 418.423 1158.57 416.782C1161.24 415.141 1164.37 414.321 1167.95 414.321C1171.53 414.321 1174.65 415.141 1177.32 416.782C1179.99 418.423 1182.06 420.726 1183.53 423.692C1185.01 426.659 1185.74 430.122 1185.74 434.083C1185.74 438.027 1185.01 441.474 1183.53 444.424C1182.06 447.374 1179.99 449.669 1177.32 451.31C1174.65 452.95 1171.53 453.771 1167.95 453.771ZM1167.97 447.531C1170.29 447.531 1172.21 446.918 1173.74 445.692C1175.26 444.465 1176.39 442.833 1177.12 440.795C1177.86 438.756 1178.24 436.511 1178.24 434.058C1178.24 431.622 1177.86 429.385 1177.12 427.347C1176.39 425.292 1175.26 423.643 1173.74 422.4C1172.21 421.157 1170.29 420.536 1167.97 420.536C1165.63 420.536 1163.7 421.157 1162.15 422.4C1160.63 423.643 1159.49 425.292 1158.75 427.347C1158.02 429.385 1157.65 431.622 1157.65 434.058C1157.65 436.511 1158.02 438.756 1158.75 440.795C1159.49 442.833 1160.63 444.465 1162.15 445.692C1163.7 446.918 1165.63 447.531 1167.97 447.531ZM1201.47 430.33V453H1194.04V414.818H1201.17V421.033H1201.65C1202.53 419.011 1203.9 417.387 1205.77 416.161C1207.66 414.934 1210.04 414.321 1212.91 414.321C1215.51 414.321 1217.79 414.868 1219.74 415.962C1221.7 417.039 1223.22 418.646 1224.29 420.784C1225.37 422.922 1225.91 425.565 1225.91 428.714V453H1218.48V429.609C1218.48 426.841 1217.75 424.679 1216.31 423.121C1214.87 421.546 1212.89 420.759 1210.37 420.759C1208.65 420.759 1207.12 421.132 1205.77 421.878C1204.45 422.624 1203.4 423.717 1202.62 425.159C1201.85 426.584 1201.47 428.308 1201.47 430.33Z" fill="#1E191F"/>
<circle cx="879" cy="552" r="50" fill="white"/>
<g clip-path="url(#clip0_242_122)">
<path d="M910.54 522.986L907.794 525.732C914.346 532.897 917.979 542.254 917.979 551.963C917.979 561.672 914.346 571.029 907.794 578.194L910.54 580.94C917.826 573.037 921.871 562.681 921.871 551.931C921.871 541.182 917.826 530.826 910.54 522.922V522.986Z" fill="#5A5564"/>
<path d="M852.797 523.225C859.961 516.673 869.319 513.04 879.028 513.04C888.736 513.04 898.094 516.673 905.259 523.225L908.004 520.479C900.101 513.193 889.745 509.147 878.996 509.147C868.246 509.147 857.89 513.193 849.987 520.479L852.797 523.225Z" fill="#5A5564"/>
<path d="M850.225 578.222C843.681 571.059 840.052 561.707 840.052 552.005C840.052 542.302 843.681 532.95 850.225 525.787L847.479 523.042C840.193 530.945 836.147 541.301 836.147 552.05C836.147 562.8 840.193 573.156 847.479 581.059L850.225 578.222Z" fill="#5A5564"/>
<path d="M905.222 580.757C898.057 587.309 888.7 590.942 878.991 590.942C869.282 590.942 859.925 587.309 852.76 580.757L850.014 583.503C857.918 590.789 868.273 594.835 879.023 594.835C889.772 594.835 900.128 590.789 908.032 583.503L905.222 580.757Z" fill="#5A5564"/>
<path d="M896.335 542.839C895.786 537.109 890.844 535.187 884.592 534.601V526.712H879.76V534.455C878.488 534.455 877.188 534.455 875.898 534.455V526.712H871.102V534.656H861.299V539.827C861.299 539.827 864.869 539.763 864.814 539.827C865.457 539.757 866.103 539.938 866.616 540.335C867.128 540.731 867.466 541.31 867.56 541.951V563.697C867.546 563.923 867.487 564.144 867.386 564.347C867.286 564.55 867.145 564.73 866.974 564.878C866.805 565.028 866.608 565.143 866.394 565.215C866.181 565.288 865.954 565.316 865.729 565.299C865.793 565.354 862.215 565.299 862.215 565.299L861.299 571.074H871.01V579.146H875.843V571.193H879.705V579.11H884.547V571.129C892.711 570.635 898.403 568.621 899.117 560.979C899.694 554.828 896.802 552.083 892.18 550.975C894.99 549.593 896.729 547.03 896.335 542.839ZM889.562 560.027C889.562 566.031 879.275 565.345 875.998 565.345V554.691C879.275 554.7 889.562 553.757 889.562 560.027ZM887.32 545.017C887.32 550.508 878.735 549.84 876.007 549.84V540.157C878.735 540.157 887.32 539.297 887.32 545.017Z" fill="#F09242"/>
<path d="M878.991 602C869.103 601.998 859.437 599.064 851.216 593.57C842.995 588.075 836.588 580.266 832.804 571.13C829.021 561.994 828.032 551.941 829.961 542.243C831.891 532.545 836.653 523.637 843.645 516.645C850.637 509.653 859.545 504.891 869.243 502.961C878.941 501.032 888.994 502.021 898.13 505.804C907.266 509.588 915.075 515.995 920.57 524.216C926.064 532.437 928.998 542.103 929 551.991C929.001 558.559 927.709 565.062 925.196 571.13C922.683 577.198 918.999 582.711 914.355 587.355C909.711 591.999 904.198 595.683 898.13 598.196C892.062 600.709 885.559 602.001 878.991 602ZM878.991 505.899C869.881 505.906 860.977 508.614 853.406 513.68C845.834 518.747 839.934 525.944 836.452 534.362C832.97 542.781 832.062 552.042 833.842 560.977C835.623 569.911 840.012 578.117 846.455 584.558C852.898 590.999 861.106 595.384 870.041 597.161C878.976 598.938 888.238 598.026 896.655 594.541C905.072 591.055 912.267 585.153 917.33 577.579C922.393 570.006 925.097 561.101 925.101 551.991C925.103 545.936 923.912 539.94 921.596 534.345C919.279 528.751 915.882 523.668 911.6 519.387C907.318 515.106 902.233 511.712 896.638 509.397C891.043 507.083 885.046 505.894 878.991 505.899Z" fill="#282138"/>
</g>
<circle cx="692" cy="834" r="50" fill="white"/>
<g clip-path="url(#clip1_242_122)">
<path d="M723.54 804.986L720.794 807.732C727.346 814.897 730.979 824.254 730.979 833.963C730.979 843.672 727.346 853.029 720.794 860.194L723.54 862.94C730.826 855.037 734.871 844.681 734.871 833.931C734.871 823.182 730.826 812.826 723.54 804.922V804.986Z" fill="#5A5564"/>
<path d="M665.797 805.225C672.961 798.673 682.319 795.04 692.028 795.04C701.736 795.04 711.094 798.673 718.259 805.225L721.004 802.479C713.101 795.193 702.745 791.147 691.996 791.147C681.246 791.147 670.89 795.193 662.987 802.479L665.797 805.225Z" fill="#5A5564"/>
<path d="M663.225 860.222C656.681 853.059 653.052 843.707 653.052 834.005C653.052 824.302 656.681 814.95 663.225 807.787L660.479 805.042C653.193 812.945 649.147 823.301 649.147 834.05C649.147 844.8 653.193 855.156 660.479 863.059L663.225 860.222Z" fill="#5A5564"/>
<path d="M718.222 862.757C711.057 869.309 701.7 872.942 691.991 872.942C682.282 872.942 672.925 869.309 665.76 862.757L663.014 865.503C670.918 872.789 681.273 876.835 692.023 876.835C702.772 876.835 713.128 872.789 721.032 865.503L718.222 862.757Z" fill="#5A5564"/>
<path d="M709.335 824.839C708.786 819.109 703.844 817.187 697.592 816.601V808.712H692.76V816.455C691.488 816.455 690.188 816.455 688.898 816.455V808.712H684.102V816.656H674.299V821.827C674.299 821.827 677.869 821.763 677.814 821.827C678.457 821.757 679.103 821.938 679.616 822.335C680.128 822.731 680.466 823.31 680.56 823.951V845.697C680.546 845.923 680.487 846.144 680.386 846.347C680.286 846.55 680.145 846.73 679.974 846.878C679.805 847.028 679.608 847.143 679.394 847.215C679.181 847.288 678.954 847.316 678.729 847.299C678.793 847.354 675.215 847.299 675.215 847.299L674.299 853.074H684.01V861.146H688.843V853.193H692.705V861.11H697.547V853.129C705.711 852.635 711.403 850.621 712.117 842.979C712.694 836.828 709.802 834.083 705.18 832.975C707.99 831.593 709.729 829.03 709.335 824.839ZM702.562 842.027C702.562 848.031 692.275 847.345 688.998 847.345V836.691C692.275 836.7 702.562 835.757 702.562 842.027ZM700.32 827.017C700.32 832.508 691.735 831.84 689.007 831.84V822.157C691.735 822.157 700.32 821.297 700.32 827.017Z" fill="#F09242"/>
<path d="M691.991 884C682.103 883.998 672.437 881.064 664.216 875.57C655.995 870.075 649.588 862.266 645.804 853.13C642.021 843.994 641.032 833.941 642.961 824.243C644.891 814.545 649.653 805.637 656.645 798.645C663.637 791.653 672.545 786.891 682.243 784.961C691.941 783.032 701.994 784.021 711.13 787.804C720.266 791.588 728.075 797.995 733.57 806.216C739.064 814.437 741.998 824.103 742 833.991C742.001 840.559 740.709 847.062 738.196 853.13C735.683 859.198 731.999 864.711 727.355 869.355C722.711 873.999 717.198 877.683 711.13 880.196C705.062 882.709 698.559 884.001 691.991 884ZM691.991 787.899C682.881 787.906 673.977 790.614 666.406 795.68C658.834 800.747 652.934 807.944 649.452 816.362C645.97 824.781 645.062 834.042 646.842 842.977C648.623 851.911 653.012 860.117 659.455 866.558C665.898 872.999 674.106 877.384 683.041 879.161C691.976 880.938 701.238 880.026 709.655 876.541C718.072 873.055 725.267 867.153 730.33 859.579C735.393 852.006 738.097 843.101 738.101 833.991C738.103 827.936 736.912 821.94 734.596 816.345C732.279 810.751 728.882 805.668 724.6 801.387C720.318 797.106 715.233 793.712 709.638 791.397C704.043 789.083 698.046 787.894 691.991 787.899Z" fill="#282138"/>
</g>
<g clip-path="url(#clip2_242_122)">
<path d="M621 602C648.709 602 671 579.709 671 552C671 524.292 648.709 502 621 502C593.292 502 571 524.292 571 552C571 579.709 593.292 602 621 602Z" fill="#2775CA"/>
<path d="M634.75 559.917C634.75 552.625 630.375 550.125 621.625 549.084C615.375 548.25 614.125 546.584 614.125 543.667C614.125 540.75 616.208 538.875 620.375 538.875C624.125 538.875 626.208 540.125 627.25 543.25C627.458 543.875 628.083 544.292 628.708 544.292H632.041C632.875 544.292 633.5 543.667 633.5 542.834V542.625C632.666 538.042 628.916 534.5 624.125 534.084V529.084C624.125 528.25 623.5 527.625 622.458 527.417H619.333C618.5 527.417 617.875 528.042 617.666 529.084V533.875C611.416 534.709 607.458 538.875 607.458 544.084C607.458 550.959 611.625 553.667 620.375 554.709C626.208 555.75 628.083 557 628.083 560.334C628.083 563.667 625.166 565.959 621.208 565.959C615.791 565.959 613.916 563.667 613.291 560.542C613.083 559.709 612.458 559.292 611.833 559.292H608.291C607.458 559.292 606.833 559.917 606.833 560.75V560.959C607.666 566.167 611 569.917 617.875 570.959V575.959C617.875 576.792 618.5 577.417 619.541 577.625H622.666C623.5 577.625 624.125 577 624.333 575.959V570.959C630.583 569.917 634.75 565.542 634.75 559.917Z" fill="white"/>
<path d="M610.375 581.791C594.125 575.958 585.792 557.833 591.834 541.791C594.959 533.041 601.834 526.375 610.375 523.25C611.209 522.833 611.625 522.208 611.625 521.166V518.25C611.625 517.416 611.209 516.791 610.375 516.583C610.167 516.583 609.75 516.583 609.542 516.791C589.75 523.041 578.917 544.083 585.167 563.875C588.917 575.541 597.875 584.5 609.542 588.25C610.375 588.666 611.209 588.25 611.417 587.416C611.625 587.208 611.625 587 611.625 586.583V583.666C611.625 583.041 611 582.208 610.375 581.791ZM632.459 516.791C631.625 516.375 630.792 516.791 630.584 517.625C630.375 517.833 630.375 518.041 630.375 518.458V521.375C630.375 522.208 631 523.041 631.625 523.458C647.875 529.291 656.209 547.416 650.167 563.458C647.042 572.208 640.167 578.875 631.625 582C630.792 582.416 630.375 583.041 630.375 584.083V587C630.375 587.833 630.792 588.458 631.625 588.666C631.834 588.666 632.25 588.666 632.459 588.458C652.25 582.208 663.084 561.166 656.834 541.375C653.084 529.5 643.917 520.541 632.459 516.791Z" fill="white"/>
</g>
<g clip-path="url(#clip3_242_122)">
<path d="M309 470C336.709 470 359 447.709 359 420C359 392.292 336.709 370 309 370C281.292 370 259 392.292 259 420C259 447.709 281.292 470 309 470Z" fill="#2775CA"/>
<path d="M322.75 427.917C322.75 420.625 318.375 418.125 309.625 417.084C303.375 416.25 302.125 414.584 302.125 411.667C302.125 408.75 304.208 406.875 308.375 406.875C312.125 406.875 314.208 408.125 315.25 411.25C315.458 411.875 316.083 412.292 316.708 412.292H320.041C320.875 412.292 321.5 411.667 321.5 410.834V410.625C320.666 406.042 316.916 402.5 312.125 402.084V397.084C312.125 396.25 311.5 395.625 310.458 395.417H307.333C306.5 395.417 305.875 396.042 305.666 397.084V401.875C299.416 402.709 295.458 406.875 295.458 412.084C295.458 418.959 299.625 421.667 308.375 422.709C314.208 423.75 316.083 425 316.083 428.334C316.083 431.667 313.166 433.959 309.208 433.959C303.791 433.959 301.916 431.667 301.291 428.542C301.083 427.709 300.458 427.292 299.833 427.292H296.291C295.458 427.292 294.833 427.917 294.833 428.75V428.959C295.666 434.167 299 437.917 305.875 438.959V443.959C305.875 444.792 306.5 445.417 307.541 445.625H310.666C311.5 445.625 312.125 445 312.333 443.959V438.959C318.583 437.917 322.75 433.542 322.75 427.917Z" fill="white"/>
<path d="M298.375 449.791C282.125 443.958 273.792 425.833 279.834 409.791C282.959 401.041 289.834 394.375 298.375 391.25C299.209 390.833 299.625 390.208 299.625 389.166V386.25C299.625 385.416 299.209 384.791 298.375 384.583C298.167 384.583 297.75 384.583 297.542 384.791C277.75 391.041 266.917 412.083 273.167 431.875C276.917 443.541 285.875 452.5 297.542 456.25C298.375 456.666 299.209 456.25 299.417 455.416C299.625 455.208 299.625 455 299.625 454.583V451.666C299.625 451.041 299 450.208 298.375 449.791ZM320.459 384.791C319.625 384.375 318.792 384.791 318.584 385.625C318.375 385.833 318.375 386.041 318.375 386.458V389.375C318.375 390.208 319 391.041 319.625 391.458C335.875 397.291 344.209 415.416 338.167 431.458C335.042 440.208 328.167 446.875 319.625 450C318.792 450.416 318.375 451.041 318.375 452.083V455C318.375 455.833 318.792 456.458 319.625 456.666C319.834 456.666 320.25 456.666 320.459 456.458C340.25 450.208 351.084 429.166 344.834 409.375C341.084 397.5 331.917 388.541 320.459 384.791Z" fill="white"/>
</g>
<g clip-path="url(#clip4_242_122)">
<path d="M550 884C577.709 884 600 861.709 600 834C600 806.292 577.709 784 550 784C522.292 784 500 806.292 500 834C500 861.709 522.292 884 550 884Z" fill="#2775CA"/>
<path d="M563.75 841.917C563.75 834.625 559.375 832.125 550.625 831.084C544.375 830.25 543.125 828.584 543.125 825.667C543.125 822.75 545.208 820.875 549.375 820.875C553.125 820.875 555.208 822.125 556.25 825.25C556.458 825.875 557.083 826.292 557.708 826.292H561.041C561.875 826.292 562.5 825.667 562.5 824.834V824.625C561.666 820.042 557.916 816.5 553.125 816.084V811.084C553.125 810.25 552.5 809.625 551.458 809.417H548.333C547.5 809.417 546.875 810.042 546.666 811.084V815.875C540.416 816.709 536.458 820.875 536.458 826.084C536.458 832.959 540.625 835.667 549.375 836.709C555.208 837.75 557.083 839 557.083 842.334C557.083 845.667 554.166 847.959 550.208 847.959C544.791 847.959 542.916 845.667 542.291 842.542C542.083 841.709 541.458 841.292 540.833 841.292H537.291C536.458 841.292 535.833 841.917 535.833 842.75V842.959C536.666 848.167 540 851.917 546.875 852.959V857.959C546.875 858.792 547.5 859.417 548.541 859.625H551.666C552.5 859.625 553.125 859 553.333 857.959V852.959C559.583 851.917 563.75 847.542 563.75 841.917Z" fill="white"/>
<path d="M539.375 863.791C523.125 857.958 514.792 839.833 520.834 823.791C523.959 815.041 530.834 808.375 539.375 805.25C540.209 804.833 540.625 804.208 540.625 803.166V800.25C540.625 799.416 540.209 798.791 539.375 798.583C539.167 798.583 538.75 798.583 538.542 798.791C518.75 805.041 507.917 826.083 514.167 845.875C517.917 857.541 526.875 866.5 538.542 870.25C539.375 870.666 540.209 870.25 540.417 869.416C540.625 869.208 540.625 869 540.625 868.583V865.666C540.625 865.041 540 864.208 539.375 863.791ZM561.459 798.791C560.625 798.375 559.792 798.791 559.584 799.625C559.375 799.833 559.375 800.041 559.375 800.458V803.375C559.375 804.208 560 805.041 560.625 805.458C576.875 811.291 585.209 829.416 579.167 845.458C576.042 854.208 569.167 860.875 560.625 864C559.792 864.416 559.375 865.041 559.375 866.083V869C559.375 869.833 559.792 870.458 560.625 870.666C560.834 870.666 561.25 870.666 561.459 870.458C581.25 864.208 592.084 843.166 585.834 823.375C582.084 811.5 572.917 802.541 561.459 798.791Z" fill="white"/>
</g>
<path d="M1208 706L1184.91 746H1231.09L1208 706ZM1212 956V742H1204V956H1212Z" fill="#ADADAD"/>
<path d="M1066 956L1089.09 916H1042.91L1066 956ZM1070 920V706H1062V920H1070Z" fill="#ADADAD"/>
<path d="M542.8 631H538.396C538.136 629.733 537.68 628.621 537.029 627.662C536.39 626.703 535.608 625.898 534.685 625.247C533.774 624.584 532.762 624.087 531.649 623.756C530.536 623.424 529.376 623.259 528.169 623.259C525.967 623.259 523.973 623.815 522.185 624.928C520.41 626.04 518.995 627.68 517.942 629.846C516.9 632.012 516.379 634.67 516.379 637.818C516.379 640.967 516.9 643.624 517.942 645.79C518.995 647.957 520.41 649.596 522.185 650.709C523.973 651.821 525.967 652.378 528.169 652.378C529.376 652.378 530.536 652.212 531.649 651.881C532.762 651.549 533.774 651.058 534.685 650.407C535.608 649.744 536.39 648.933 537.029 647.974C537.68 647.004 538.136 645.891 538.396 644.636H542.8C542.468 646.495 541.864 648.158 540.988 649.626C540.113 651.094 539.023 652.342 537.721 653.372C536.419 654.39 534.957 655.165 533.336 655.698C531.726 656.231 530.004 656.497 528.169 656.497C525.068 656.497 522.309 655.74 519.895 654.224C517.48 652.709 515.58 650.555 514.195 647.761C512.81 644.968 512.118 641.653 512.118 637.818C512.118 633.983 512.81 630.669 514.195 627.875C515.58 625.081 517.48 622.927 519.895 621.412C522.309 619.897 525.068 619.139 528.169 619.139C530.004 619.139 531.726 619.406 533.336 619.938C534.957 620.471 536.419 621.252 537.721 622.282C539.023 623.3 540.113 624.543 540.988 626.011C541.864 627.467 542.468 629.13 542.8 631ZM560.426 656.568C557.964 656.568 555.804 655.982 553.946 654.81C552.099 653.638 550.655 651.999 549.613 649.892C548.583 647.785 548.069 645.323 548.069 642.506C548.069 639.665 548.583 637.185 549.613 635.066C550.655 632.947 552.099 631.302 553.946 630.13C555.804 628.958 557.964 628.372 560.426 628.372C562.889 628.372 565.043 628.958 566.89 630.13C568.748 631.302 570.192 632.947 571.222 635.066C572.264 637.185 572.784 639.665 572.784 642.506C572.784 645.323 572.264 647.785 571.222 649.892C570.192 651.999 568.748 653.638 566.89 654.81C565.043 655.982 562.889 656.568 560.426 656.568ZM560.426 652.804C562.297 652.804 563.836 652.325 565.043 651.366C566.25 650.407 567.144 649.146 567.724 647.584C568.304 646.021 568.594 644.329 568.594 642.506C568.594 640.683 568.304 638.984 567.724 637.41C567.144 635.835 566.25 634.563 565.043 633.592C563.836 632.622 562.297 632.136 560.426 632.136C558.556 632.136 557.017 632.622 555.81 633.592C554.603 634.563 553.709 635.835 553.129 637.41C552.549 638.984 552.259 640.683 552.259 642.506C552.259 644.329 552.549 646.021 553.129 647.584C553.709 649.146 554.603 650.407 555.81 651.366C557.017 652.325 558.556 652.804 560.426 652.804ZM583.371 619.636V656H579.181V619.636H583.371ZM595.237 619.636V656H591.046V619.636H595.237ZM610.937 656.639C609.209 656.639 607.64 656.314 606.232 655.663C604.823 655 603.704 654.047 602.876 652.804C602.047 651.549 601.633 650.034 601.633 648.259C601.633 646.696 601.941 645.429 602.556 644.459C603.172 643.476 603.994 642.707 605.024 642.151C606.054 641.594 607.191 641.18 608.433 640.908C609.688 640.624 610.949 640.399 612.215 640.233C613.873 640.02 615.216 639.86 616.246 639.754C617.288 639.635 618.045 639.44 618.519 639.168C619.004 638.895 619.247 638.422 619.247 637.747V637.605C619.247 635.853 618.767 634.492 617.808 633.521C616.861 632.551 615.423 632.065 613.494 632.065C611.493 632.065 609.925 632.503 608.789 633.379C607.652 634.255 606.853 635.19 606.392 636.185L602.414 634.764C603.124 633.107 604.071 631.817 605.255 630.893C606.451 629.958 607.753 629.307 609.161 628.94C610.582 628.562 611.979 628.372 613.352 628.372C614.228 628.372 615.234 628.479 616.37 628.692C617.518 628.893 618.625 629.313 619.691 629.952C620.768 630.592 621.661 631.556 622.372 632.847C623.082 634.137 623.437 635.865 623.437 638.031V656H619.247V652.307H619.034C618.749 652.899 618.276 653.532 617.613 654.207C616.95 654.881 616.068 655.455 614.968 655.929C613.867 656.402 612.523 656.639 610.937 656.639ZM611.576 652.875C613.233 652.875 614.63 652.549 615.767 651.898C616.915 651.247 617.779 650.407 618.359 649.377C618.951 648.347 619.247 647.264 619.247 646.128V642.293C619.069 642.506 618.678 642.701 618.075 642.879C617.483 643.044 616.796 643.192 616.015 643.322C615.246 643.441 614.494 643.547 613.76 643.642C613.038 643.725 612.452 643.796 612.002 643.855C610.913 643.997 609.895 644.228 608.948 644.548C608.013 644.855 607.256 645.323 606.676 645.95C606.107 646.566 605.823 647.406 605.823 648.472C605.823 649.928 606.362 651.028 607.439 651.774C608.528 652.508 609.907 652.875 611.576 652.875ZM642.946 628.727V632.278H628.812V628.727H642.946ZM632.932 622.193H637.122V648.188C637.122 649.371 637.294 650.259 637.637 650.851C637.992 651.431 638.442 651.821 638.987 652.023C639.543 652.212 640.129 652.307 640.744 652.307C641.206 652.307 641.585 652.283 641.881 652.236C642.177 652.177 642.413 652.129 642.591 652.094L643.443 655.858C643.159 655.964 642.763 656.071 642.254 656.178C641.745 656.296 641.099 656.355 640.318 656.355C639.134 656.355 637.974 656.101 636.838 655.592C635.714 655.083 634.778 654.307 634.033 653.266C633.299 652.224 632.932 650.91 632.932 649.324V622.193ZM660.391 656.568C657.763 656.568 655.496 655.988 653.591 654.828C651.697 653.656 650.235 652.023 649.205 649.928C648.187 647.821 647.678 645.37 647.678 642.577C647.678 639.783 648.187 637.321 649.205 635.19C650.235 633.048 651.667 631.379 653.502 630.183C655.348 628.976 657.503 628.372 659.965 628.372C661.385 628.372 662.788 628.609 664.173 629.082C665.558 629.556 666.819 630.325 667.955 631.391C669.091 632.444 669.997 633.841 670.672 635.581C671.346 637.321 671.684 639.464 671.684 642.009V643.784H650.661V640.162H667.422C667.422 638.623 667.114 637.25 666.499 636.043C665.895 634.835 665.031 633.882 663.907 633.184C662.794 632.486 661.48 632.136 659.965 632.136C658.296 632.136 656.852 632.551 655.632 633.379C654.425 634.196 653.496 635.261 652.845 636.575C652.194 637.889 651.868 639.298 651.868 640.801V643.216C651.868 645.276 652.223 647.022 652.934 648.454C653.656 649.874 654.656 650.957 655.934 651.703C657.213 652.437 658.698 652.804 660.391 652.804C661.492 652.804 662.486 652.65 663.374 652.342C664.274 652.023 665.049 651.549 665.7 650.922C666.351 650.283 666.854 649.49 667.209 648.543L671.257 649.679C670.831 651.052 670.115 652.259 669.109 653.301C668.103 654.331 666.86 655.136 665.38 655.716C663.901 656.284 662.238 656.568 660.391 656.568ZM678.058 656V628.727H682.106V632.847H682.39C682.887 631.497 683.787 630.402 685.089 629.562C686.391 628.721 687.859 628.301 689.493 628.301C689.8 628.301 690.185 628.307 690.647 628.319C691.108 628.331 691.458 628.348 691.694 628.372V632.634C691.552 632.598 691.227 632.545 690.718 632.474C690.221 632.391 689.694 632.349 689.137 632.349C687.812 632.349 686.628 632.628 685.586 633.184C684.556 633.728 683.74 634.486 683.136 635.457C682.544 636.415 682.248 637.51 682.248 638.741V656H678.058ZM704.687 656.639C702.959 656.639 701.39 656.314 699.982 655.663C698.573 655 697.454 654.047 696.626 652.804C695.797 651.549 695.383 650.034 695.383 648.259C695.383 646.696 695.691 645.429 696.306 644.459C696.922 643.476 697.744 642.707 698.774 642.151C699.804 641.594 700.941 641.18 702.183 640.908C703.438 640.624 704.699 640.399 705.965 640.233C707.623 640.02 708.966 639.86 709.996 639.754C711.038 639.635 711.795 639.44 712.269 639.168C712.754 638.895 712.997 638.422 712.997 637.747V637.605C712.997 635.853 712.517 634.492 711.558 633.521C710.611 632.551 709.173 632.065 707.244 632.065C705.243 632.065 703.675 632.503 702.539 633.379C701.402 634.255 700.603 635.19 700.142 636.185L696.164 634.764C696.874 633.107 697.821 631.817 699.005 630.893C700.201 629.958 701.503 629.307 702.911 628.94C704.332 628.562 705.729 628.372 707.102 628.372C707.978 628.372 708.984 628.479 710.12 628.692C711.268 628.893 712.375 629.313 713.441 629.952C714.518 630.592 715.411 631.556 716.122 632.847C716.832 634.137 717.187 635.865 717.187 638.031V656H712.997V652.307H712.784C712.499 652.899 712.026 653.532 711.363 654.207C710.7 654.881 709.818 655.455 708.718 655.929C707.617 656.402 706.273 656.639 704.687 656.639ZM705.326 652.875C706.983 652.875 708.38 652.549 709.517 651.898C710.665 651.247 711.529 650.407 712.109 649.377C712.701 648.347 712.997 647.264 712.997 646.128V642.293C712.819 642.506 712.428 642.701 711.825 642.879C711.233 643.044 710.546 643.192 709.765 643.322C708.996 643.441 708.244 643.547 707.51 643.642C706.788 643.725 706.202 643.796 705.752 643.855C704.663 643.997 703.645 644.228 702.698 644.548C701.763 644.855 701.006 645.323 700.426 645.95C699.857 646.566 699.573 647.406 699.573 648.472C699.573 649.928 700.112 651.028 701.189 651.774C702.278 652.508 703.657 652.875 705.326 652.875ZM729.026 619.636V656H724.835V619.636H729.026Z" fill="#1E191F"/>
<path d="M838.422 628.727C838.209 626.928 837.344 625.531 835.829 624.537C834.314 623.543 832.456 623.045 830.254 623.045C828.644 623.045 827.236 623.306 826.028 623.827C824.833 624.348 823.897 625.064 823.223 625.975C822.56 626.887 822.228 627.922 822.228 629.082C822.228 630.053 822.459 630.888 822.921 631.586C823.394 632.272 823.998 632.847 824.732 633.308C825.466 633.758 826.235 634.131 827.04 634.427C827.845 634.711 828.585 634.942 829.26 635.119L832.953 636.114C833.9 636.362 834.953 636.705 836.113 637.143C837.285 637.581 838.404 638.179 839.469 638.937C840.546 639.683 841.434 640.641 842.133 641.813C842.831 642.985 843.18 644.423 843.18 646.128C843.18 648.093 842.665 649.868 841.635 651.455C840.617 653.041 839.126 654.301 837.161 655.237C835.208 656.172 832.834 656.639 830.041 656.639C827.437 656.639 825.182 656.219 823.276 655.379C821.382 654.538 819.891 653.366 818.802 651.863C817.724 650.36 817.115 648.614 816.973 646.625H821.518C821.637 647.998 822.098 649.134 822.903 650.034C823.72 650.922 824.75 651.585 825.993 652.023C827.247 652.449 828.597 652.662 830.041 652.662C831.722 652.662 833.231 652.39 834.569 651.845C835.906 651.289 836.966 650.519 837.747 649.537C838.528 648.543 838.919 647.383 838.919 646.057C838.919 644.849 838.581 643.867 837.907 643.109C837.232 642.352 836.344 641.736 835.243 641.263C834.142 640.789 832.953 640.375 831.674 640.02L827.2 638.741C824.359 637.925 822.11 636.759 820.453 635.244C818.796 633.728 817.967 631.746 817.967 629.295C817.967 627.259 818.517 625.484 819.618 623.969C820.731 622.442 822.223 621.258 824.093 620.418C825.975 619.565 828.076 619.139 830.396 619.139C832.74 619.139 834.823 619.559 836.646 620.4C838.469 621.228 839.913 622.365 840.978 623.809C842.056 625.253 842.624 626.893 842.683 628.727H838.422ZM854.042 639.594V656H849.852V619.636H854.042V632.989H854.397C855.036 631.58 855.995 630.461 857.274 629.633C858.564 628.792 860.28 628.372 862.423 628.372C864.281 628.372 865.909 628.745 867.306 629.491C868.702 630.225 869.786 631.355 870.555 632.882C871.336 634.397 871.727 636.327 871.727 638.67V656H867.536V638.955C867.536 636.788 866.974 635.113 865.85 633.93C864.737 632.734 863.192 632.136 861.215 632.136C859.842 632.136 858.611 632.426 857.522 633.006C856.445 633.586 855.593 634.433 854.965 635.545C854.35 636.658 854.042 638.008 854.042 639.594ZM890.472 656.568C888.01 656.568 885.85 655.982 883.992 654.81C882.145 653.638 880.701 651.999 879.659 649.892C878.629 647.785 878.114 645.323 878.114 642.506C878.114 639.665 878.629 637.185 879.659 635.066C880.701 632.947 882.145 631.302 883.992 630.13C885.85 628.958 888.01 628.372 890.472 628.372C892.935 628.372 895.089 628.958 896.935 630.13C898.794 631.302 900.238 632.947 901.268 635.066C902.31 637.185 902.83 639.665 902.83 642.506C902.83 645.323 902.31 647.785 901.268 649.892C900.238 651.999 898.794 653.638 896.935 654.81C895.089 655.982 892.935 656.568 890.472 656.568ZM890.472 652.804C892.343 652.804 893.881 652.325 895.089 651.366C896.296 650.407 897.19 649.146 897.77 647.584C898.35 646.021 898.64 644.329 898.64 642.506C898.64 640.683 898.35 638.984 897.77 637.41C897.19 635.835 896.296 634.563 895.089 633.592C893.881 632.622 892.343 632.136 890.472 632.136C888.602 632.136 887.063 632.622 885.856 633.592C884.649 634.563 883.755 635.835 883.175 637.41C882.595 638.984 882.305 640.683 882.305 642.506C882.305 644.329 882.595 646.021 883.175 647.584C883.755 649.146 884.649 650.407 885.856 651.366C887.063 652.325 888.602 652.804 890.472 652.804ZM909.227 656V628.727H913.275V632.847H913.559C914.056 631.497 914.956 630.402 916.258 629.562C917.56 628.721 919.028 628.301 920.661 628.301C920.969 628.301 921.354 628.307 921.816 628.319C922.277 628.331 922.626 628.348 922.863 628.372V632.634C922.721 632.598 922.396 632.545 921.887 632.474C921.389 632.391 920.863 632.349 920.306 632.349C918.981 632.349 917.797 632.628 916.755 633.184C915.725 633.728 914.909 634.486 914.305 635.457C913.713 636.415 913.417 637.51 913.417 638.741V656H909.227ZM941.4 628.727V632.278H927.267V628.727H941.4ZM931.386 622.193H935.576V648.188C935.576 649.371 935.748 650.259 936.091 650.851C936.446 651.431 936.896 651.821 937.441 652.023C937.997 652.212 938.583 652.307 939.198 652.307C939.66 652.307 940.039 652.283 940.335 652.236C940.631 652.177 940.867 652.129 941.045 652.094L941.897 655.858C941.613 655.964 941.217 656.071 940.708 656.178C940.199 656.296 939.554 656.355 938.772 656.355C937.589 656.355 936.429 656.101 935.292 655.592C934.168 655.083 933.233 654.307 932.487 653.266C931.753 652.224 931.386 650.91 931.386 649.324V622.193Z" fill="#1E191F"/>
<g clip-path="url(#clip5_242_122)">
<path d="M1137 602C1164.71 602 1187 579.709 1187 552C1187 524.292 1164.71 502 1137 502C1109.29 502 1087 524.292 1087 552C1087 579.709 1109.29 602 1137 602Z" fill="#2775CA"/>
<path d="M1150.75 559.917C1150.75 552.625 1146.37 550.125 1137.62 549.084C1131.37 548.25 1130.12 546.584 1130.12 543.667C1130.12 540.75 1132.21 538.875 1136.37 538.875C1140.12 538.875 1142.21 540.125 1143.25 543.25C1143.46 543.875 1144.08 544.292 1144.71 544.292H1148.04C1148.87 544.292 1149.5 543.667 1149.5 542.834V542.625C1148.67 538.042 1144.92 534.5 1140.12 534.084V529.084C1140.12 528.25 1139.5 527.625 1138.46 527.417H1135.33C1134.5 527.417 1133.87 528.042 1133.67 529.084V533.875C1127.42 534.709 1123.46 538.875 1123.46 544.084C1123.46 550.959 1127.62 553.667 1136.37 554.709C1142.21 555.75 1144.08 557 1144.08 560.334C1144.08 563.667 1141.17 565.959 1137.21 565.959C1131.79 565.959 1129.92 563.667 1129.29 560.542C1129.08 559.709 1128.46 559.292 1127.83 559.292H1124.29C1123.46 559.292 1122.83 559.917 1122.83 560.75V560.959C1123.67 566.167 1127 569.917 1133.87 570.959V575.959C1133.87 576.792 1134.5 577.417 1135.54 577.625H1138.67C1139.5 577.625 1140.12 577 1140.33 575.959V570.959C1146.58 569.917 1150.75 565.542 1150.75 559.917Z" fill="white"/>
<path d="M1126.38 581.791C1110.13 575.958 1101.79 557.833 1107.83 541.791C1110.96 533.041 1117.83 526.375 1126.38 523.25C1127.21 522.833 1127.63 522.208 1127.63 521.166V518.25C1127.63 517.416 1127.21 516.791 1126.38 516.583C1126.17 516.583 1125.75 516.583 1125.54 516.791C1105.75 523.041 1094.92 544.083 1101.17 563.875C1104.92 575.541 1113.88 584.5 1125.54 588.25C1126.38 588.666 1127.21 588.25 1127.42 587.416C1127.63 587.208 1127.63 587 1127.63 586.583V583.666C1127.63 583.041 1127 582.208 1126.38 581.791ZM1148.46 516.791C1147.63 516.375 1146.79 516.791 1146.58 517.625C1146.38 517.833 1146.38 518.041 1146.38 518.458V521.375C1146.38 522.208 1147 523.041 1147.63 523.458C1163.88 529.291 1172.21 547.416 1166.17 563.458C1163.04 572.208 1156.17 578.875 1147.63 582C1146.79 582.416 1146.38 583.041 1146.38 584.083V587C1146.38 587.833 1146.79 588.458 1147.63 588.666C1147.83 588.666 1148.25 588.666 1148.46 588.458C1168.25 582.208 1179.08 561.166 1172.83 541.375C1169.08 529.5 1159.92 520.541 1148.46 516.791Z" fill="white"/>
</g>
<path d="M1082.57 656V619.636H1086.97V652.094H1103.87V656H1082.57ZM1121.2 656.568C1118.74 656.568 1116.58 655.982 1114.72 654.81C1112.87 653.638 1111.43 651.999 1110.39 649.892C1109.36 647.785 1108.84 645.323 1108.84 642.506C1108.84 639.665 1109.36 637.185 1110.39 635.066C1111.43 632.947 1112.87 631.302 1114.72 630.13C1116.58 628.958 1118.74 628.372 1121.2 628.372C1123.66 628.372 1125.82 628.958 1127.66 630.13C1129.52 631.302 1130.97 632.947 1132 635.066C1133.04 637.185 1133.56 639.665 1133.56 642.506C1133.56 645.323 1133.04 647.785 1132 649.892C1130.97 651.999 1129.52 653.638 1127.66 654.81C1125.82 655.982 1123.66 656.568 1121.2 656.568ZM1121.2 652.804C1123.07 652.804 1124.61 652.325 1125.82 651.366C1127.03 650.407 1127.92 649.146 1128.5 647.584C1129.08 646.021 1129.37 644.329 1129.37 642.506C1129.37 640.683 1129.08 638.984 1128.5 637.41C1127.92 635.835 1127.03 634.563 1125.82 633.592C1124.61 632.622 1123.07 632.136 1121.2 632.136C1119.33 632.136 1117.79 632.622 1116.59 633.592C1115.38 634.563 1114.48 635.835 1113.9 637.41C1113.32 638.984 1113.03 640.683 1113.03 642.506C1113.03 644.329 1113.32 646.021 1113.9 647.584C1114.48 649.146 1115.38 650.407 1116.59 651.366C1117.79 652.325 1119.33 652.804 1121.2 652.804ZM1144.15 639.594V656H1139.96V628.727H1144V632.989H1144.36C1145 631.604 1145.97 630.491 1147.27 629.651C1148.57 628.798 1150.25 628.372 1152.31 628.372C1154.16 628.372 1155.78 628.751 1157.16 629.509C1158.55 630.254 1159.62 631.391 1160.39 632.918C1161.16 634.433 1161.55 636.35 1161.55 638.67V656H1157.36V638.955C1157.36 636.812 1156.8 635.143 1155.69 633.947C1154.58 632.74 1153.05 632.136 1151.11 632.136C1149.77 632.136 1148.57 632.426 1147.52 633.006C1146.48 633.586 1145.66 634.433 1145.05 635.545C1144.45 636.658 1144.15 638.008 1144.15 639.594ZM1180.21 666.795C1178.19 666.795 1176.45 666.535 1174.99 666.014C1173.54 665.505 1172.32 664.83 1171.35 663.99C1170.39 663.161 1169.63 662.274 1169.06 661.327L1172.4 658.983C1172.78 659.48 1173.26 660.048 1173.84 660.688C1174.42 661.339 1175.21 661.901 1176.22 662.374C1177.24 662.86 1178.57 663.102 1180.21 663.102C1182.41 663.102 1184.23 662.57 1185.66 661.504C1187.1 660.439 1187.81 658.77 1187.81 656.497V650.957H1187.46C1187.15 651.455 1186.71 652.07 1186.14 652.804C1185.59 653.526 1184.78 654.171 1183.73 654.739C1182.69 655.296 1181.28 655.574 1179.5 655.574C1177.3 655.574 1175.32 655.053 1173.57 654.011C1171.83 652.97 1170.45 651.455 1169.44 649.466C1168.43 647.477 1167.93 645.062 1167.93 642.222C1167.93 639.428 1168.42 636.996 1169.4 634.924C1170.38 632.841 1171.75 631.231 1173.5 630.094C1175.25 628.946 1177.28 628.372 1179.57 628.372C1181.35 628.372 1182.76 628.668 1183.8 629.26C1184.85 629.84 1185.66 630.503 1186.21 631.249C1186.78 631.982 1187.22 632.586 1187.53 633.06H1187.95V628.727H1192V656.781C1192 659.125 1191.47 661.031 1190.4 662.499C1189.35 663.978 1187.93 665.061 1186.14 665.748C1184.37 666.446 1182.39 666.795 1180.21 666.795ZM1180.07 651.81C1181.75 651.81 1183.17 651.425 1184.33 650.656C1185.49 649.886 1186.37 648.779 1186.98 647.335C1187.58 645.891 1187.88 644.163 1187.88 642.151C1187.88 640.186 1187.59 638.451 1187 636.948C1186.4 635.445 1185.53 634.267 1184.37 633.415C1183.21 632.562 1181.78 632.136 1180.07 632.136C1178.3 632.136 1176.82 632.586 1175.63 633.486C1174.46 634.385 1173.58 635.593 1172.99 637.108C1172.41 638.623 1172.12 640.304 1172.12 642.151C1172.12 644.045 1172.41 645.719 1173 647.175C1173.61 648.62 1174.5 649.756 1175.67 650.585C1176.85 651.401 1178.32 651.81 1180.07 651.81Z" fill="#1E191F"/>
<path d="M163.898 394.091V445H157.733V400.554H157.435L145.006 408.807V402.543L157.733 394.091H163.898Z" fill="#C25EC0"/>
<circle cx="1066" cy="834" r="50" fill="white"/>
<g clip-path="url(#clip6_242_122)">
<path d="M1097.54 804.986L1094.79 807.732C1101.35 814.897 1104.98 824.254 1104.98 833.963C1104.98 843.672 1101.35 853.029 1094.79 860.194L1097.54 862.94C1104.83 855.037 1108.87 844.681 1108.87 833.931C1108.87 823.182 1104.83 812.826 1097.54 804.922V804.986Z" fill="#5A5564"/>
<path d="M1039.8 805.225C1046.96 798.673 1056.32 795.04 1066.03 795.04C1075.74 795.04 1085.09 798.673 1092.26 805.225L1095 802.479C1087.1 795.193 1076.75 791.147 1066 791.147C1055.25 791.147 1044.89 795.193 1036.99 802.479L1039.8 805.225Z" fill="#5A5564"/>
<path d="M1037.22 860.222C1030.68 853.059 1027.05 843.707 1027.05 834.005C1027.05 824.302 1030.68 814.95 1037.22 807.787L1034.48 805.042C1027.19 812.945 1023.15 823.301 1023.15 834.05C1023.15 844.8 1027.19 855.156 1034.48 863.059L1037.22 860.222Z" fill="#5A5564"/>
<path d="M1092.22 862.757C1085.06 869.309 1075.7 872.942 1065.99 872.942C1056.28 872.942 1046.92 869.309 1039.76 862.757L1037.01 865.503C1044.92 872.789 1055.27 876.835 1066.02 876.835C1076.77 876.835 1087.13 872.789 1095.03 865.503L1092.22 862.757Z" fill="#5A5564"/>
<path d="M1083.34 824.839C1082.79 819.109 1077.84 817.187 1071.59 816.601V808.712H1066.76V816.455C1065.49 816.455 1064.19 816.455 1062.9 816.455V808.712H1058.1V816.656H1048.3V821.827C1048.3 821.827 1051.87 821.763 1051.81 821.827C1052.46 821.757 1053.1 821.938 1053.62 822.335C1054.13 822.731 1054.47 823.31 1054.56 823.951V845.697C1054.55 845.923 1054.49 846.144 1054.39 846.347C1054.29 846.55 1054.15 846.73 1053.97 846.878C1053.81 847.028 1053.61 847.143 1053.39 847.215C1053.18 847.288 1052.95 847.316 1052.73 847.299C1052.79 847.354 1049.21 847.299 1049.21 847.299L1048.3 853.074H1058.01V861.146H1062.84V853.193H1066.7V861.11H1071.55V853.129C1079.71 852.635 1085.4 850.621 1086.12 842.979C1086.69 836.828 1083.8 834.083 1079.18 832.975C1081.99 831.593 1083.73 829.03 1083.34 824.839ZM1076.56 842.027C1076.56 848.031 1066.27 847.345 1063 847.345V836.691C1066.27 836.7 1076.56 835.757 1076.56 842.027ZM1074.32 827.017C1074.32 832.508 1065.73 831.84 1063.01 831.84V822.157C1065.73 822.157 1074.32 821.297 1074.32 827.017Z" fill="#F09242"/>
<path d="M1065.99 884C1056.1 883.998 1046.44 881.064 1038.22 875.57C1029.99 870.075 1023.59 862.266 1019.8 853.13C1016.02 843.994 1015.03 833.941 1016.96 824.243C1018.89 814.545 1023.65 805.637 1030.64 798.645C1037.64 791.653 1046.55 786.891 1056.24 784.961C1065.94 783.032 1075.99 784.021 1085.13 787.804C1094.27 791.588 1102.07 797.995 1107.57 806.216C1113.06 814.437 1116 824.103 1116 833.991C1116 840.559 1114.71 847.062 1112.2 853.13C1109.68 859.198 1106 864.711 1101.36 869.355C1096.71 873.999 1091.2 877.683 1085.13 880.196C1079.06 882.709 1072.56 884.001 1065.99 884ZM1065.99 787.899C1056.88 787.906 1047.98 790.614 1040.41 795.68C1032.83 800.747 1026.93 807.944 1023.45 816.362C1019.97 824.781 1019.06 834.042 1020.84 842.977C1022.62 851.911 1027.01 860.117 1033.46 866.558C1039.9 872.999 1048.11 877.384 1057.04 879.161C1065.98 880.938 1075.24 880.026 1083.65 876.541C1092.07 873.055 1099.27 867.153 1104.33 859.579C1109.39 852.006 1112.1 843.101 1112.1 833.991C1112.1 827.936 1110.91 821.94 1108.6 816.345C1106.28 810.751 1102.88 805.668 1098.6 801.387C1094.32 797.106 1089.23 793.712 1083.64 791.397C1078.04 789.083 1072.05 787.894 1065.99 787.899Z" fill="#282138"/>
</g>
<g clip-path="url(#clip7_242_122)">
<path d="M1208 884C1235.71 884 1258 861.709 1258 834C1258 806.292 1235.71 784 1208 784C1180.29 784 1158 806.292 1158 834C1158 861.709 1180.29 884 1208 884Z" fill="#2775CA"/>
<path d="M1221.75 841.917C1221.75 834.625 1217.37 832.125 1208.62 831.084C1202.37 830.25 1201.12 828.584 1201.12 825.667C1201.12 822.75 1203.21 820.875 1207.37 820.875C1211.12 820.875 1213.21 822.125 1214.25 825.25C1214.46 825.875 1215.08 826.292 1215.71 826.292H1219.04C1219.87 826.292 1220.5 825.667 1220.5 824.834V824.625C1219.67 820.042 1215.92 816.5 1211.12 816.084V811.084C1211.12 810.25 1210.5 809.625 1209.46 809.417H1206.33C1205.5 809.417 1204.87 810.042 1204.67 811.084V815.875C1198.42 816.709 1194.46 820.875 1194.46 826.084C1194.46 832.959 1198.62 835.667 1207.37 836.709C1213.21 837.75 1215.08 839 1215.08 842.334C1215.08 845.667 1212.17 847.959 1208.21 847.959C1202.79 847.959 1200.92 845.667 1200.29 842.542C1200.08 841.709 1199.46 841.292 1198.83 841.292H1195.29C1194.46 841.292 1193.83 841.917 1193.83 842.75V842.959C1194.67 848.167 1198 851.917 1204.87 852.959V857.959C1204.87 858.792 1205.5 859.417 1206.54 859.625H1209.67C1210.5 859.625 1211.12 859 1211.33 857.959V852.959C1217.58 851.917 1221.75 847.542 1221.75 841.917Z" fill="white"/>
<path d="M1197.38 863.791C1181.13 857.958 1172.79 839.833 1178.83 823.791C1181.96 815.041 1188.83 808.375 1197.38 805.25C1198.21 804.833 1198.63 804.208 1198.63 803.166V800.25C1198.63 799.416 1198.21 798.791 1197.38 798.583C1197.17 798.583 1196.75 798.583 1196.54 798.791C1176.75 805.041 1165.92 826.083 1172.17 845.875C1175.92 857.541 1184.88 866.5 1196.54 870.25C1197.38 870.666 1198.21 870.25 1198.42 869.416C1198.63 869.208 1198.63 869 1198.63 868.583V865.666C1198.63 865.041 1198 864.208 1197.38 863.791ZM1219.46 798.791C1218.63 798.375 1217.79 798.791 1217.58 799.625C1217.38 799.833 1217.38 800.041 1217.38 800.458V803.375C1217.38 804.208 1218 805.041 1218.63 805.458C1234.88 811.291 1243.21 829.416 1237.17 845.458C1234.04 854.208 1227.17 860.875 1218.63 864C1217.79 864.416 1217.38 865.041 1217.38 866.083V869C1217.38 869.833 1217.79 870.458 1218.63 870.666C1218.83 870.666 1219.25 870.666 1219.46 870.458C1239.25 864.208 1250.08 843.166 1243.83 823.375C1240.08 811.5 1230.92 802.541 1219.46 798.791Z" fill="white"/>
</g>
<path d="M445.078 782V777.526L461.882 759.131C463.855 756.976 465.479 755.104 466.755 753.513C468.031 751.905 468.975 750.397 469.588 748.989C470.218 747.563 470.533 746.072 470.533 744.514C470.533 742.724 470.102 741.175 469.24 739.866C468.395 738.557 467.235 737.546 465.76 736.833C464.285 736.121 462.628 735.764 460.789 735.764C458.833 735.764 457.126 736.17 455.668 736.982C454.226 737.778 453.108 738.896 452.312 740.338C451.533 741.78 451.144 743.47 451.144 745.409H445.277C445.277 742.426 445.965 739.808 447.341 737.554C448.716 735.3 450.589 733.544 452.958 732.284C455.345 731.025 458.021 730.395 460.988 730.395C463.971 730.395 466.614 731.025 468.917 732.284C471.221 733.544 473.027 735.242 474.336 737.38C475.645 739.518 476.3 741.896 476.3 744.514C476.3 746.387 475.96 748.218 475.281 750.008C474.618 751.781 473.458 753.761 471.801 755.949C470.16 758.12 467.882 760.771 464.965 763.903L453.53 776.134V776.531H477.195V782H445.078Z" fill="#C25EC0"/>
<path d="M977.186 782.696C973.905 782.696 970.98 782.133 968.412 781.006C965.859 779.879 963.829 778.313 962.321 776.308C960.83 774.286 960.018 771.941 959.885 769.273H966.15C966.282 770.913 966.846 772.33 967.84 773.523C968.834 774.7 970.135 775.612 971.743 776.258C973.35 776.904 975.132 777.227 977.087 777.227C979.275 777.227 981.213 776.846 982.904 776.084C984.594 775.321 985.92 774.261 986.881 772.902C987.842 771.543 988.323 769.969 988.323 768.179C988.323 766.306 987.859 764.657 986.931 763.232C986.003 761.79 984.644 760.664 982.854 759.852C981.064 759.04 978.877 758.634 976.292 758.634H972.215V753.165H976.292C978.313 753.165 980.087 752.8 981.611 752.071C983.152 751.342 984.354 750.314 985.216 748.989C986.094 747.663 986.533 746.105 986.533 744.315C986.533 742.592 986.152 741.092 985.39 739.816C984.627 738.54 983.55 737.546 982.158 736.833C980.783 736.121 979.158 735.764 977.286 735.764C975.529 735.764 973.872 736.087 972.314 736.734C970.773 737.363 969.514 738.283 968.536 739.493C967.558 740.686 967.028 742.128 966.945 743.818H960.979C961.078 741.15 961.882 738.813 963.39 736.808C964.898 734.786 966.87 733.212 969.306 732.085C971.759 730.958 974.452 730.395 977.385 730.395C980.534 730.395 983.235 731.033 985.489 732.309C987.743 733.568 989.475 735.234 990.684 737.305C991.894 739.377 992.499 741.614 992.499 744.017C992.499 746.884 991.745 749.328 990.237 751.35C988.745 753.372 986.715 754.772 984.147 755.551V755.949C987.362 756.479 989.872 757.846 991.679 760.05C993.485 762.238 994.388 764.947 994.388 768.179C994.388 770.946 993.634 773.432 992.126 775.636C990.635 777.824 988.596 779.547 986.011 780.807C983.426 782.066 980.484 782.696 977.186 782.696Z" fill="#C25EC0"/>
<defs>
<linearGradient id="paint0_linear_242_122" x1="693.322" y1="1029.15" x2="548.986" y2="1150.59" gradientUnits="userSpaceOnUse">
<stop stop-color="#B6509E"/>
<stop offset="1" stop-color="#2EBAC6"/>
</linearGradient>
<linearGradient id="paint1_linear_242_122" x1="779" y1="179" x2="968" y2="339" gradientUnits="userSpaceOnUse">
<stop stop-color="#4FCFF6"/>
<stop offset="0.425" stop-color="#BF5DC1"/>
<stop offset="0.75" stop-color="#FD6793"/>
<stop offset="1" stop-color="#FE947E"/>
</linearGradient>
<clipPath id="clip0_242_122">
<rect width="100" height="100" fill="white" transform="translate(829 502)"/>
</clipPath>
<clipPath id="clip1_242_122">
<rect width="100" height="100" fill="white" transform="translate(642 784)"/>
</clipPath>
<clipPath id="clip2_242_122">
<rect width="100" height="100" fill="white" transform="translate(571 502)"/>
</clipPath>
<clipPath id="clip3_242_122">
<rect width="100" height="100" fill="white" transform="translate(259 370)"/>
</clipPath>
<clipPath id="clip4_242_122">
<rect width="100" height="100" fill="white" transform="translate(500 784)"/>
</clipPath>
<clipPath id="clip5_242_122">
<rect width="100" height="100" fill="white" transform="translate(1087 502)"/>
</clipPath>
<clipPath id="clip6_242_122">
<rect width="100" height="100" fill="white" transform="translate(1016 784)"/>
</clipPath>
<clipPath id="clip7_242_122">
<rect width="100" height="100" fill="white" transform="translate(1158 784)"/>
</clipPath>
</defs>
</svg>
